<?xml version="1.0" encoding="utf-8"?>
<!-- Generator: Adobe Illustrator 25.1.0, SVG Export Plug-In . SVG Version: 6.00 Build 0)  -->
<svg version="1.1" id="Capa_1" xmlns="http://www.w3.org/2000/svg" xmlns:xlink="http://www.w3.org/1999/xlink" x="0px" y="0px"
	 viewBox="0 0 587.1 372.6" style="enable-background:new 0 0 587.1 372.6;" xml:space="preserve">
<style type="text/css">
	.st0{fill:#FFD423;}
	.st1{fill:#FFFFFF;}
	.st2{fill:#00CE7C;}
</style>
<g>
	<g id="Element_3_">
		<g>
			<g>
				<g>
					<g>
						<polygon class="st0" points="70.3,22 70.3,67.8 91.1,44.9 						"/>
					</g>
				</g>
			</g>
		</g>
		<g>
			<g>
				<g>
					<g>
						<g>
							<circle cx="87.6" cy="29.8" r="1.7"/>
						</g>
					</g>
				</g>
			</g>
			<g>
				<g>
					<g>
						<g>
							<circle cx="87.5" cy="37.4" r="1.7"/>
						</g>
					</g>
				</g>
			</g>
			<g>
				<g>
					<g>
						<g>
							<circle cx="87.5" cy="45.2" r="1.7"/>
						</g>
					</g>
				</g>
			</g>
			<g>
				<g>
					<g>
						<g>
							<circle cx="87.5" cy="52.9" r="1.7"/>
						</g>
					</g>
				</g>
			</g>
			<g>
				<g>
					<g>
						<g>
							<circle cx="94.4" cy="37.4" r="1.7"/>
						</g>
					</g>
				</g>
			</g>
			<g>
				<g>
					<g>
						<g>
							<circle cx="94.4" cy="45.2" r="1.7"/>
						</g>
					</g>
				</g>
			</g>
			<g>
				<g>
					<g>
						<g>
							<circle cx="101.3" cy="45.2" r="1.7"/>
						</g>
					</g>
				</g>
			</g>
			<g>
				<g>
					<g>
						<g>
							<circle cx="94.4" cy="52.9" r="1.7"/>
						</g>
					</g>
				</g>
			</g>
			<g>
				<g>
					<g>
						<g>
							<circle cx="87.5" cy="60.7" r="1.7"/>
						</g>
					</g>
				</g>
			</g>
			<g>
				<g>
					<g>
						<g>
							<circle cx="80.4" cy="29.8" r="1.7"/>
						</g>
					</g>
				</g>
			</g>
			<g>
				<g>
					<g>
						<g>
							<circle cx="80.6" cy="22.2" r="1.7"/>
						</g>
					</g>
				</g>
			</g>
			<g>
				<g>
					<g>
						<g>
							<circle cx="80.3" cy="37.4" r="1.7"/>
						</g>
					</g>
				</g>
			</g>
			<g>
				<g>
					<g>
						<g>
							<circle cx="80.3" cy="45.2" r="1.7"/>
						</g>
					</g>
				</g>
			</g>
			<g>
				<g>
					<g>
						<g>
							<circle cx="80.3" cy="52.9" r="1.7"/>
						</g>
					</g>
				</g>
			</g>
			<g>
				<g>
					<g>
						<g>
							<circle cx="80.3" cy="60.7" r="1.7"/>
						</g>
					</g>
				</g>
			</g>
			<g>
				<g>
					<g>
						<g>
							<circle cx="80.3" cy="68.4" r="1.7"/>
						</g>
					</g>
				</g>
			</g>
		</g>
	</g>
	<g>
		<g>
			<g>
				<g>
					<rect x="158.2" y="41.9" width="247" height="311.5"/>
				</g>
			</g>
		</g>
	</g>
	<g>
		<g>
			<g>
				<g>
					<rect x="178.3" y="58.4" class="st1" width="245.8" height="304.3"/>
				</g>
			</g>
		</g>
		<g>
			<g>
				<g>
					<path d="M425.2,363.6H177.3V57.4h247.8V363.6z M179.3,361.6h243.8V59.4H179.3V361.6z"/>
				</g>
			</g>
		</g>
	</g>
	<g>
		<g>
			<g>
				<g>
					<g>
						<circle class="st1" cx="233.1" cy="126.2" r="26.4"/>
					</g>
				</g>
			</g>
			<g>
				<g>
					<g>
						<path d="M233.1,153.6c-15.1,0-27.4-12.3-27.4-27.4s12.3-27.4,27.4-27.4s27.4,12.3,27.4,27.4S248.3,153.6,233.1,153.6z
							 M233.1,100.8c-14,0-25.4,11.4-25.4,25.4s11.4,25.4,25.4,25.4s25.4-11.4,25.4-25.4S247.1,100.8,233.1,100.8z"/>
					</g>
				</g>
			</g>
		</g>
		<g>
			<g>
				<g>
					<g>
						<polygon class="st2" points="227.9,141.1 214.2,127.9 217,125 227.5,135.1 258,95.8 261.1,98.2 						"/>
					</g>
				</g>
			</g>
		</g>
		<g>
			<g>
				<g>
					<g>
						<rect x="290.5" y="107.7" class="st1" width="106.4" height="37.5"/>
					</g>
				</g>
			</g>
			<g>
				<g>
					<g>
						<path d="M397.9,146.2H289.5v-39.5h108.4V146.2z M291.5,144.1h104.4v-35.5H291.5V144.1z"/>
					</g>
				</g>
			</g>
		</g>
		<g>
			<g>
				<g>
					<g>
						<g>
							<rect x="304.6" y="118.6" class="st2" width="37.1" height="4"/>
						</g>
					</g>
				</g>
			</g>
			<g>
				<g>
					<g>
						<g>
							<rect x="304.6" y="130.1" class="st2" width="78.2" height="4"/>
						</g>
					</g>
				</g>
			</g>
		</g>
	</g>
	<g>
		<g>
			<g>
				<g>
					<g>
						<circle class="st1" cx="233.1" cy="207.2" r="26.4"/>
					</g>
				</g>
			</g>
			<g>
				<g>
					<g>
						<path d="M233.1,234.6c-15.1,0-27.4-12.3-27.4-27.4c0-15.1,12.3-27.4,27.4-27.4s27.4,12.3,27.4,27.4
							C260.6,222.3,248.3,234.6,233.1,234.6z M233.1,181.8c-14,0-25.4,11.4-25.4,25.4s11.4,25.4,25.4,25.4s25.4-11.4,25.4-25.4
							S247.1,181.8,233.1,181.8z"/>
					</g>
				</g>
			</g>
		</g>
		<g>
			<g>
				<g>
					<g>
						<polygon class="st2" points="227.9,222.1 214.2,208.9 217,206 227.5,216.1 258,176.8 261.1,179.2 						"/>
					</g>
				</g>
			</g>
		</g>
		<g>
			<g>
				<g>
					<g>
						<rect x="290.5" y="188.7" class="st1" width="106.4" height="37.5"/>
					</g>
				</g>
			</g>
			<g>
				<g>
					<g>
						<path d="M397.9,227.2H289.5v-39.5h108.4V227.2z M291.5,225.1h104.4v-35.5H291.5V225.1z"/>
					</g>
				</g>
			</g>
		</g>
		<g>
			<g>
				<g>
					<g>
						<g>
							<rect x="304.6" y="199.7" class="st2" width="37.1" height="4"/>
						</g>
					</g>
				</g>
			</g>
			<g>
				<g>
					<g>
						<g>
							<rect x="304.6" y="211.1" class="st2" width="78.2" height="4"/>
						</g>
					</g>
				</g>
			</g>
		</g>
	</g>
	<g>
		<g>
			<g>
				<g>
					<g>
						<circle class="st1" cx="233.1" cy="288.2" r="26.4"/>
					</g>
				</g>
			</g>
			<g>
				<g>
					<g>
						<path d="M233.1,315.6c-15.1,0-27.4-12.3-27.4-27.4c0-15.1,12.3-27.4,27.4-27.4s27.4,12.3,27.4,27.4
							C260.6,303.3,248.3,315.6,233.1,315.6z M233.1,262.8c-14,0-25.4,11.4-25.4,25.4c0,14,11.4,25.4,25.4,25.4s25.4-11.4,25.4-25.4
							C258.5,274.2,247.1,262.8,233.1,262.8z"/>
					</g>
				</g>
			</g>
		</g>
		<g>
			<g>
				<g>
					<g>
						<polygon class="st2" points="227.9,303.1 214.2,289.9 217,287 227.5,297.1 258,257.8 261.1,260.2 						"/>
					</g>
				</g>
			</g>
		</g>
		<g>
			<g>
				<g>
					<g>
						<rect x="290.5" y="269.7" class="st1" width="106.4" height="37.5"/>
					</g>
				</g>
			</g>
			<g>
				<g>
					<g>
						<path d="M397.9,308.2H289.5v-39.5h108.4V308.2z M291.5,306.1h104.4v-35.5H291.5V306.1z"/>
					</g>
				</g>
			</g>
		</g>
		<g>
			<g>
				<g>
					<g>
						<g>
							<rect x="304.6" y="280.7" class="st2" width="37.1" height="4"/>
						</g>
					</g>
				</g>
			</g>
			<g>
				<g>
					<g>
						<g>
							<rect x="304.6" y="292.1" class="st2" width="78.2" height="4"/>
						</g>
					</g>
				</g>
			</g>
		</g>
	</g>
	<g>
		<g>
			<g>
				<g>
					<path class="st1" d="M338.8,33.6C337.7,18.7,325.3,7,310.2,7s-27.5,11.7-28.5,26.6h-33.5v45.1h120.9V33.6H338.8z M308.6,38
						c-4.8,0-8.7-3.9-8.7-8.7c0-4.8,3.9-8.7,8.7-8.7s8.7,3.9,8.7,8.7C317.3,34.1,313.4,38,308.6,38z"/>
				</g>
			</g>
		</g>
		<g>
			<g>
				<g>
					<path d="M370.1,79.7H247.2V32.6h33.6C282.3,17.6,295,6,310.2,6s27.9,11.6,29.5,26.6h30.4V79.7z M249.2,77.7h118.9V34.6h-30.2
						l-0.1-0.9C336.7,19.3,324.7,8,310.2,8c-14.4,0-26.5,11.3-27.5,25.7l-0.1,0.9h-33.5V77.7z M308.6,39c-5.3,0-9.7-4.3-9.7-9.7
						s4.3-9.7,9.7-9.7c5.3,0,9.7,4.3,9.7,9.7S313.9,39,308.6,39z M308.6,21.7c-4.2,0-7.7,3.4-7.7,7.7s3.4,7.7,7.7,7.7
						s7.7-3.4,7.7-7.7S312.8,21.7,308.6,21.7z"/>
				</g>
			</g>
		</g>
	</g>
	<g id="Calendar_2_">
		<g>
			<g>
				<g>
					<g>
						<g>
							<polygon points="70,238.1 43.9,238.1 28.4,362.6 70,362.6 							"/>
						</g>
					</g>
				</g>
			</g>
			<g>
				<g>
					<g>
						<g>
							<path d="M71,363.6H27.3L43,237h28V363.6z M29.6,361.6H69V239.1H44.8L29.6,361.6z"/>
						</g>
					</g>
				</g>
			</g>
		</g>
		<g>
			<g>
				<g>
					<g>
						<g>
							<polygon class="st2" points="52.8,238.1 54.6,261.9 62.2,362.6 201.5,362.6 193.9,261.9 192.2,238.1 							"/>
						</g>
					</g>
				</g>
			</g>
			<g>
				<g>
					<g>
						<g>
							<path d="M202.6,363.6H61.2L51.7,237h141.4L202.6,363.6z M63.1,361.6h137.3l-9.2-122.6H53.9L63.1,361.6z"/>
						</g>
					</g>
				</g>
			</g>
		</g>
		<g>
			<g>
				<g>
					<g>
						<polygon class="st1" points="179.1,276.7 161.4,276.7 163.3,295.4 181.1,295.4 						"/>
					</g>
				</g>
			</g>
			<g>
				<g>
					<g>
						<path d="M182.2,296.4h-19.8l-2.2-20.7H180L182.2,296.4z M164.3,294.4H180l-1.8-16.7h-15.7L164.3,294.4z"/>
					</g>
				</g>
			</g>
		</g>
		<g>
			<g>
				<g>
					<g>
						<polygon class="st1" points="148.6,276.7 130.8,276.7 132.8,295.4 150.5,295.4 						"/>
					</g>
				</g>
			</g>
			<g>
				<g>
					<g>
						<path d="M151.7,296.4h-19.8l-2.2-20.7h19.8L151.7,296.4z M133.7,294.4h15.7l-1.8-16.7H132L133.7,294.4z"/>
					</g>
				</g>
			</g>
		</g>
		<g>
			<g>
				<g>
					<g>
						<polygon class="st1" points="118,276.7 100.3,276.7 102.3,295.4 120,295.4 						"/>
					</g>
				</g>
			</g>
			<g>
				<g>
					<g>
						<path d="M121.1,296.4h-19.8l-2.2-20.7H119L121.1,296.4z M103.2,294.4h15.7l-1.8-16.7h-15.7L103.2,294.4z"/>
					</g>
				</g>
			</g>
		</g>
		<g>
			<g>
				<g>
					<g>
						<polygon class="st1" points="87.5,276.7 69.8,276.7 71.8,295.4 89.5,295.4 						"/>
					</g>
				</g>
			</g>
			<g>
				<g>
					<g>
						<path d="M90.6,296.4H70.9l-2.2-20.7h19.8L90.6,296.4z M72.7,294.4h15.7l-1.8-16.7H70.9L72.7,294.4z"/>
					</g>
				</g>
			</g>
		</g>
		<g>
			<g>
				<g>
					<g>
						<polygon class="st1" points="182.6,304.3 164.8,304.3 166.8,323 184.5,323 						"/>
					</g>
				</g>
			</g>
			<g>
				<g>
					<g>
						<path d="M185.6,324h-19.8l-2.2-20.7h19.8L185.6,324z M167.7,322h15.7l-1.8-16.7h-15.7L167.7,322z"/>
					</g>
				</g>
			</g>
		</g>
		<g>
			<g>
				<g>
					<g>
						<polygon class="st1" points="152,304.3 134.3,304.3 136.3,323 154,323 						"/>
					</g>
				</g>
			</g>
			<g>
				<g>
					<g>
						<path d="M155.1,324h-19.8l-2.2-20.7h19.8L155.1,324z M137.2,322h15.7l-1.8-16.7h-15.7L137.2,322z"/>
					</g>
				</g>
			</g>
		</g>
		<g>
			<g>
				<g>
					<g>
						<polygon class="st1" points="121.5,304.3 103.8,304.3 105.7,323 123.5,323 						"/>
					</g>
				</g>
			</g>
			<g>
				<g>
					<g>
						<path d="M124.6,324h-19.8l-2.2-20.7h19.8L124.6,324z M106.6,322h15.7l-1.8-16.7h-15.7L106.6,322z"/>
					</g>
				</g>
			</g>
		</g>
		<g>
			<g>
				<g>
					<g>
						<polygon class="st1" points="91,304.3 73.2,304.3 75.2,323 92.9,323 						"/>
					</g>
				</g>
			</g>
			<g>
				<g>
					<g>
						<path d="M94.1,324H74.3l-2.2-20.7h19.8L94.1,324z M76.1,322h15.7l-1.8-16.7H74.4L76.1,322z"/>
					</g>
				</g>
			</g>
		</g>
		<g>
			<g>
				<g>
					<g>
						<polygon class="st1" points="186,331.9 168.3,331.9 170.2,350.6 188,350.6 						"/>
					</g>
				</g>
			</g>
			<g>
				<g>
					<g>
						<path d="M189.1,351.6h-19.8l-2.2-20.7h19.8L189.1,351.6z M171.1,349.6h15.7l-1.8-16.7h-15.7L171.1,349.6z"/>
					</g>
				</g>
			</g>
		</g>
		<g>
			<g>
				<g>
					<g>
						<polygon class="st1" points="155.5,331.9 137.7,331.9 139.7,350.6 157.4,350.6 						"/>
					</g>
				</g>
			</g>
			<g>
				<g>
					<g>
						<path d="M158.6,351.6h-19.8l-2.2-20.7h19.8L158.6,351.6z M140.6,349.6h15.7l-1.8-16.7h-15.7L140.6,349.6z"/>
					</g>
				</g>
			</g>
		</g>
		<g>
			<g>
				<g>
					<g>
						<polygon class="st1" points="124.9,331.9 107.2,331.9 109.2,350.6 126.9,350.6 						"/>
					</g>
				</g>
			</g>
			<g>
				<g>
					<g>
						<path d="M128,351.6h-19.8l-2.2-20.7h19.8L128,351.6z M110.1,349.6h15.7l-1.8-16.7h-15.7L110.1,349.6z"/>
					</g>
				</g>
			</g>
		</g>
		<g>
			<g>
				<g>
					<g>
						<polygon class="st1" points="94.4,331.9 76.7,331.9 78.7,350.6 96.4,350.6 						"/>
					</g>
				</g>
			</g>
			<g>
				<g>
					<g>
						<path d="M97.5,351.6H77.7l-2.2-20.7h19.8L97.5,351.6z M79.6,349.6h15.7l-1.8-16.7H77.8L79.6,349.6z"/>
					</g>
				</g>
			</g>
		</g>
		<g>
			<g>
				<g>
					<g>
						<g>
							<polygon class="st0" points="52.8,238.1 54.6,261.9 193.9,261.9 192.2,238.1 							"/>
						</g>
					</g>
				</g>
			</g>
			<g>
				<g>
					<g>
						<g>
							<path d="M195,262.9H53.7L51.7,237h141.4L195,262.9z M55.5,260.9h137.3l-1.6-21.9H53.9L55.5,260.9z"/>
						</g>
					</g>
				</g>
			</g>
		</g>
		<g>
			<g>
				<g>
					<g>
						<path d="M170.7,250.4v-2c5.6,0,10.1-4.5,10.1-10.1s-4.5-10.1-10.1-10.1c-5.6,0-10.1,4.5-10.1,10.1h-2
							c0-6.7,5.4-12.1,12.1-12.1s12.1,5.4,12.1,12.1S177.4,250.4,170.7,250.4z"/>
					</g>
				</g>
			</g>
		</g>
		<g>
			<g>
				<g>
					<g>
						<path d="M123.5,250.4v-2c5.6,0,10.1-4.5,10.1-10.1s-4.5-10.1-10.1-10.1c-5.6,0-10.1,4.5-10.1,10.1h-2
							c0-6.7,5.4-12.1,12.1-12.1s12.1,5.4,12.1,12.1S130.1,250.4,123.5,250.4z"/>
					</g>
				</g>
			</g>
		</g>
		<g>
			<g>
				<g>
					<g>
						<path d="M79.6,250.4v-2c5.6,0,10.1-4.5,10.1-10.1s-4.5-10.1-10.1-10.1s-10.1,4.5-10.1,10.1h-2c0-6.7,5.4-12.1,12.1-12.1
							c6.7,0,12.1,5.4,12.1,12.1S86.3,250.4,79.6,250.4z"/>
					</g>
				</g>
			</g>
		</g>
	</g>
	<g id="Coin_3_">
		<g>
			<g>
				<g>
					<g>
						<g>
							<circle cx="212.9" cy="322.7" r="40.2"/>
						</g>
					</g>
				</g>
			</g>
			<g>
				<g>
					<g>
						<g>
							<path d="M212.9,363.9c-22.7,0-41.3-18.5-41.3-41.3c0-22.7,18.5-41.3,41.3-41.3c22.7,0,41.3,18.5,41.3,41.3
								C254.1,345.4,235.6,363.9,212.9,363.9z M212.9,283.4c-21.6,0-39.2,17.6-39.2,39.2s17.6,39.2,39.2,39.2s39.2-17.6,39.2-39.2
								S234.5,283.4,212.9,283.4z"/>
						</g>
					</g>
				</g>
			</g>
		</g>
		<g>
			<g>
				<g>
					<g>
						<g>
							<circle class="st0" cx="220.1" cy="322.7" r="40.2"/>
						</g>
					</g>
				</g>
			</g>
			<g>
				<g>
					<g>
						<g>
							<path d="M220.1,363.9c-22.7,0-41.3-18.5-41.3-41.3c0-22.7,18.5-41.3,41.3-41.3c22.7,0,41.3,18.5,41.3,41.3
								C261.4,345.4,242.9,363.9,220.1,363.9z M220.1,283.4c-21.6,0-39.2,17.6-39.2,39.2s17.6,39.2,39.2,39.2s39.2-17.6,39.2-39.2
								S241.8,283.4,220.1,283.4z"/>
						</g>
					</g>
				</g>
			</g>
		</g>
		<g>
			<g>
				<g>
					<g>
						<circle class="st1" cx="220.1" cy="322.7" r="29.7"/>
					</g>
				</g>
			</g>
			<g>
				<g>
					<g>
						<path d="M220.1,353.4c-17,0-30.7-13.8-30.7-30.7c0-17,13.8-30.7,30.7-30.7s30.7,13.8,30.7,30.7
							C250.9,339.6,237.1,353.4,220.1,353.4z M220.1,293.9c-15.8,0-28.7,12.9-28.7,28.7c0,15.8,12.9,28.7,28.7,28.7
							c15.8,0,28.7-12.9,28.7-28.7C248.9,306.8,236,293.9,220.1,293.9z"/>
					</g>
				</g>
			</g>
		</g>
	</g>
	<g id="Man_2_">
		<g>
			<g>
				<g>
					<g>
						<path class="st1" d="M544.6,136.9c0,0,5.8,29.8-13.2,26.9L457,138l6.9-14.9l62.3,15.2L544.6,136.9z"/>
					</g>
				</g>
			</g>
			<g>
				<g>
					<g>
						<path d="M533.9,165c-0.8,0-1.7-0.1-2.6-0.2l-0.2,0l-75.4-26.2l7.7-16.7l62.9,15.3l19.2-1.4l0.2,0.9c0.1,0.7,3.4,17.8-3.6,25.1
							C539.9,163.9,537.2,165,533.9,165z M531.6,162.8c3.8,0.6,6.8-0.3,8.8-2.4c5.4-5.7,3.8-18.9,3.3-22.4l-17.7,1.3l-61.6-15
							l-6,13.1L531.6,162.8z"/>
					</g>
				</g>
			</g>
		</g>
		<g>
			<g>
				<g>
					<g>
						<g>
							<path class="st1" d="M524,106l-8.4-18l-7.8-15.2l-15.6,6.4c0,0-1,26.5,12.7,19.6l3.5,10.4L524,106z"/>
						</g>
					</g>
				</g>
				<g>
					<g>
						<g>
							<path d="M507.7,110.3l-3.5-10.2c-2.7,1.1-5.1,1-7.1-0.2c-6.5-4.2-6-20.1-6-20.8l0-0.6l17.1-7l8.2,16.1l9,19.2L507.7,110.3z
								 M505.4,97.3l3.6,10.6l13.5-2.7l-7.9-16.9L507.3,74l-14.2,5.8c-0.1,4.7,0.7,15.6,5.1,18.4c1.6,1,3.6,0.9,6.1-0.3L505.4,97.3z
								"/>
						</g>
					</g>
				</g>
			</g>
			<g>
				<g>
					<g>
						<g>
							<path d="M485.6,80.6c-1-3.2,3.5-4.9,3.5-4.9c-1.7,0.1-2.4-0.6-2.5-1.3c-0.8-4,7.8-3.7,7.8-3.7c-2-1.1,0.2-2.2,0.2-2.2
								c2.8-1.1,8.4-0.6,12.4-0.1c1.2-0.3,16.4-3.8,10.6,21.7c0,0-7.5,4.5-10.5-3.5c0,0,1.1-4.7-2.7-4.4c-0.7,0.1-1.4,0.6-1.6,1.3
								c-0.3,1-0.4,1.7-0.4,2.2c0,0.4-0.3,0.7-0.7,0.8l0,0c-0.5,0.2-1-0.1-1.2-0.6l-1-3.2C492.8,84.5,486.3,82.9,485.6,80.6z"/>
						</g>
					</g>
				</g>
			</g>
		</g>
		<g>
			<g>
				<g>
					<g>
						<g>
							<path class="st0" d="M544.3,188.1c0,0-2.4,8.5-30.6,6.9c-28.2-1.6-29.4-7.7-29.4-7.7l6-10.5l49.4-2.6L544.3,188.1z"/>
						</g>
					</g>
				</g>
			</g>
			<g>
				<g>
					<g>
						<g>
							<path d="M520.5,196.2c-2.2,0-4.5-0.1-6.9-0.2c-27.6-1.6-30.1-7.3-30.3-8.5l-0.1-0.4l6.5-11.3l50.7-2.7l5,14.9l-0.1,0.3
								c-0.1,0.3-0.9,2.6-5.3,4.7C535.5,195.2,528.9,196.2,520.5,196.2z M485.4,187.4c0.9,1.1,5.6,5.3,28.3,6.6
								c24,1.4,28.7-4.6,29.5-5.9l-4.3-12.8l-48.1,2.5L485.4,187.4z"/>
						</g>
					</g>
				</g>
			</g>
		</g>
		<g>
			<g>
				<g>
					<g>
						<g>
							<path class="st0" d="M512.8,344.9c0,0,8.5,4.8,18.5,4c0,0,8.9-0.8,12.1-4l-2-7.3l-27,0.4L512.8,344.9z"/>
						</g>
					</g>
				</g>
			</g>
			<g>
				<g>
					<g>
						<g>
							<path d="M529.1,350c-9.2,0-16.4-4.1-16.7-4.3l-0.7-0.4l2-8.3l28.6-0.4l2.4,8.6l-0.4,0.4c-3.4,3.4-12.3,4.3-12.7,4.3
								C530.6,350,529.8,350,529.1,350z M514,344.4c2.1,1.1,9.2,4.2,17.3,3.6c2.2-0.2,8.3-1.2,11-3.4l-1.6-5.9l-25.4,0.4L514,344.4z
								"/>
						</g>
					</g>
				</g>
			</g>
		</g>
		<g>
			<g>
				<g>
					<g>
						<g>
							<path class="st0" d="M439.1,342.5c0,0,1.6,5.6,14.1,6.9c0,0,12.5,0,15.7-4l0.8-4.8l-27.6-3.4L439.1,342.5z"/>
						</g>
					</g>
				</g>
			</g>
			<g>
				<g>
					<g>
						<g>
							<path d="M453.2,350.3L453.2,350.3c-13.1-1.3-15-7.3-15.1-7.6l-0.1-0.4l3.6-6.4l29.3,3.6l-1,6.1l-0.2,0.2
								C466.3,350.2,454.5,350.3,453.2,350.3z M440.2,342.5c0.6,1.1,3.3,4.8,13,5.8c3.3,0,12.1-0.6,14.7-3.5l0.6-3.5l-25.9-3.2
								L440.2,342.5z"/>
						</g>
					</g>
				</g>
			</g>
		</g>
		<g>
			<g>
				<g>
					<g>
						<path class="st1" d="M446,338.5c0,0-9,13.2-17.8,15.1c-10.8,2.3-14.2,7.8-14.5,9.1h41.1l4.3-23.7L446,338.5z"/>
					</g>
				</g>
			</g>
			<g>
				<g>
					<g>
						<path d="M455.6,363.6h-43.1l0.2-1.2c0.3-1.5,3.7-7.5,15.2-9.9c8.3-1.7,17.1-14.5,17.2-14.6l0.3-0.5l14.8,0.5L455.6,363.6z
							 M415.3,361.6H454l3.9-21.7l-11.4-0.4c-1.7,2.4-9.9,13.3-18.1,15C420.4,356.2,416.7,359.7,415.3,361.6z"/>
					</g>
				</g>
			</g>
		</g>
		<g>
			<g>
				<g>
					<g>
						<path class="st1" d="M524.5,338.5c0,0-3.8,13.2-12.5,15.1c-10.8,2.3-14.2,7.8-14.5,9.1h43.1l-3-23.7L524.5,338.5z"/>
					</g>
				</g>
			</g>
			<g>
				<g>
					<g>
						<path d="M541.8,363.6h-45.5l0.2-1.2c0.3-1.5,3.7-7.5,15.2-9.9c8-1.7,11.7-14.2,11.8-14.4l0.2-0.8l14.7,0.5L541.8,363.6z
							 M499.2,361.6h40.3l-2.7-21.7l-11.5-0.4c-1,2.9-5,13.3-13.1,15C504.2,356.2,500.5,359.7,499.2,361.6z"/>
					</g>
				</g>
			</g>
		</g>
		<g>
			<g>
				<g>
					<g>
						<path d="M533.5,166c0,0,4.5,33.2,2.1,56.4l9.2,122.9c0,0-9.4-4.1-16.6-3.6c-6.4,0.4-16.6,3.6-16.6,3.6l-8.7-109.2l-33.2,109.6
							c0,0-8.5-4.8-17.4-5.2c-8.5-0.4-14.5,2-14.5,2L493.1,166H533.5z"/>
					</g>
				</g>
			</g>
		</g>
		<g>
			<g>
				<g>
					<g>
						<g>
							<g>
								<path class="st2" d="M571.8,129l-184.7,22.2c-0.5,0.1-1,0.1-1.6,0.1c-0.5,0-1-0.1-1.5-0.2l-27.9-5l-11.5-2.1
									c-1.1-0.2-1.3-1.7-0.3-2.2l10.6-5.3l25.6-12.8c0.5-0.3,1.1-0.5,1.6-0.7c0.6-0.2,1.2-0.3,1.8-0.4l184.5-22.2
									c3.5-0.4,6.6,2.1,7,5.5l1.9,15.9C577.8,125.4,575.3,128.6,571.8,129z"/>
							</g>
						</g>
					</g>
				</g>
				<g>
					<g>
						<g>
							<g>
								<path d="M385.8,152.3c-0.1,0-0.2,0-0.3,0c-0.6,0-1.1-0.1-1.7-0.2l-39.4-7.1c-0.9-0.2-1.6-0.9-1.8-1.8
									c-0.1-0.9,0.3-1.8,1.2-2.3l36.2-18.1c0.6-0.3,1.2-0.5,1.8-0.7c0.6-0.2,1.3-0.3,2-0.4l184.5-22.2c4-0.5,7.7,2.4,8.2,6.4
									l1.9,15.9c0.2,1.9-0.3,3.9-1.5,5.4c-1.2,1.5-3,2.5-4.9,2.8h0l-184.7,22.2C386.8,152.2,386.3,152.3,385.8,152.3z
									 M569.2,101.5c-0.2,0-0.4,0-0.6,0l-184.5,22.2c-0.5,0.1-1.1,0.2-1.6,0.3c-0.5,0.2-1,0.4-1.5,0.6l-36.2,18.1
									c0,0-0.1,0.1-0.1,0.2c0,0.1,0.1,0.1,0.1,0.1l39.4,7.1c0.4,0.1,0.9,0.1,1.4,0.1c0.5,0,0.9,0,1.4-0.1L571.7,128h0
									c1.4-0.2,2.7-0.9,3.6-2c0.9-1.1,1.3-2.5,1.1-3.9l-1.9-15.9C574.1,103.4,571.8,101.5,569.2,101.5z"/>
							</g>
						</g>
					</g>
				</g>
			</g>
			<g>
				<g>
					<g>
						<g>
							<path class="st1" d="M568.4,100.5l-18.8,2.3l3.4,28.5l18.8-2.3c3.5-0.4,6-3.6,5.5-7l-1.9-15.9
								C575,102.6,571.9,100.1,568.4,100.5z"/>
						</g>
					</g>
				</g>
				<g>
					<g>
						<g>
							<path d="M552.2,132.4l-3.7-30.5l19.8-2.4c1.9-0.2,3.9,0.3,5.4,1.5c1.5,1.2,2.5,3,2.8,4.9l1.9,15.9c0.2,1.9-0.3,3.9-1.5,5.4
								c-1.2,1.5-3,2.5-4.9,2.8L552.2,132.4z M550.8,103.6l3.2,26.5l17.8-2.1c1.4-0.2,2.7-0.9,3.6-2c0.9-1.1,1.3-2.5,1.1-3.9
								l-1.9-15.9c-0.2-1.4-0.9-2.7-2-3.6c-1.1-0.9-2.5-1.3-3.9-1.1L550.8,103.6z"/>
						</g>
					</g>
				</g>
			</g>
			<g>
				<g>
					<g>
						<g>
							<path class="st1" d="M382.1,123c-0.6,0.2-1.1,0.4-1.6,0.7l-29.2,14.7l-6.9,3.5c-1,0.5-0.8,2,0.3,2.2l7.4,1.3l31.9,5.7
								c0.5,0.1,1,0.1,1.5,0.2L382.1,123z"/>
						</g>
					</g>
				</g>
				<g>
					<g>
						<g>
							<path d="M386.7,152.3l-1.2,0c-0.6,0-1.1-0.1-1.7-0.2l-39.4-7.1c-0.9-0.2-1.6-0.9-1.8-1.8c-0.1-0.9,0.3-1.8,1.2-2.3l36.2-18.1
								c0.6-0.3,1.2-0.5,1.8-0.7l1.1-0.3L386.7,152.3z M381.3,124.4c-0.1,0.1-0.2,0.1-0.3,0.2l-36.2,18.1c0,0-0.1,0.1-0.1,0.2
								c0,0.1,0.1,0.1,0.1,0.1l39.4,7.1c0.1,0,0.1,0,0.2,0L381.3,124.4z"/>
						</g>
					</g>
				</g>
			</g>
			<g>
				<g>
					<g>
						<g>
							<path d="M356.2,146.1l-11.5-2.1c-1.1-0.2-1.3-1.7-0.3-2.2l10.6-5.3L356.2,146.1z"/>
						</g>
					</g>
				</g>
				<g>
					<g>
						<g>
							<path d="M357.1,147.1l-12.6-2.3c-0.9-0.2-1.5-0.8-1.6-1.7c-0.1-0.9,0.3-1.7,1.1-2.1l11.6-5.8L357.1,147.1z M354.2,137.8
								l-9.6,4.8c-0.2,0.1-0.2,0.3-0.2,0.4c0,0.1,0.1,0.3,0.3,0.3l10.4,1.9L354.2,137.8z"/>
						</g>
					</g>
				</g>
			</g>
		</g>
		<g>
			<g>
				<g>
					<g>
						<path class="st1" d="M523.5,101.6c0,0,17.9,5.5,21.9,37.4l-6.4,0.4l4.8,46.7c0,0-11.7-8.9-33.7-6.6
							c-11.6,1.2-25.7,6.7-25.7,6.7l7-28.7l-3.6-26.9c0,0,6.8-12,9.8-15.8c3.4-4.4,6.6-7.4,8.8-9.1c1.5-1.2,3.3-2,5.2-2.3
							L523.5,101.6z"/>
					</g>
				</g>
			</g>
			<g>
				<g>
					<g>
						<path d="M545.1,188.3l-1.9-1.4c-0.1-0.1-11.7-8.6-32.9-6.4c-11.4,1.1-25.3,6.6-25.4,6.7l-1.8,0.7l7.4-30.4l-3.7-27.1l0.2-0.3
							c0.3-0.5,6.9-12.1,9.8-15.9c3.5-4.5,6.8-7.5,8.9-9.3c1.6-1.3,3.6-2.2,5.7-2.5l12.3-1.8l0.2,0.1c0.2,0.1,4.8,1.5,9.9,7
							c4.6,5,10.6,14.5,12.7,31.2l0.1,1.1l-6.5,0.4L545.1,188.3z M488.9,130.8l3.6,26.8l-6.6,27c4.2-1.5,14.9-5.2,24.2-6.1
							c17.4-1.8,28.4,3.3,32.5,5.7l-4.7-45.7l6.4-0.4c-3.9-28.1-19-34.7-20.9-35.4l-11.8,1.7c-1.7,0.3-3.3,1-4.7,2.1
							c-2.1,1.7-5.2,4.6-8.6,8.9C495.8,118.8,489.9,128.9,488.9,130.8z"/>
					</g>
				</g>
			</g>
		</g>
		<g>
			<g>
				<g>
					<g>
						<path class="st1" d="M504.5,235.3l-1.8-0.9c13.9-27.8,20-44.5,20.1-44.6l1.9,0.7C524.6,190.7,518.4,207.4,504.5,235.3z"/>
					</g>
				</g>
			</g>
		</g>
		<g>
			<g>
				<g>
					<g>
						<rect x="501.4" y="135.1" transform="matrix(0.6448 -0.7643 0.7643 0.6448 77.0049 438.0194)" width="16.9" height="2"/>
					</g>
				</g>
			</g>
		</g>
		<g>
			<g>
				<g>
					<g>
						<path class="st1" d="M487.8,131l-9.7,17.3l-29.2-1.1l-16.2-7.5c0,0-0.8,2.2,1,6.1l-16.7,1.9c0,0,10.6,5.6,18.8,6.9l42.9,10.4
							c3.2,1.1,6.8,0.1,8.9-2.6l16.4-20L487.8,131z"/>
					</g>
				</g>
			</g>
			<g>
				<g>
					<g>
						<path d="M481.5,166.4c-1,0-1.9-0.2-2.9-0.5l-42.8-10.4c-8.2-1.3-18.6-6.7-19.1-7l-2.9-1.5l18.7-2.1c-1.2-3.4-0.6-5.4-0.5-5.6
							l0.4-1l17,7.9l28.3,1.1l9.9-17.7l18.1,12.7L488.6,163C486.8,165.2,484.2,166.4,481.5,166.4z M420.7,148.2
							c3.7,1.7,10.1,4.4,15.4,5.3l0.1,0l43,10.5l0,0c2.8,1,6,0.1,7.8-2.2l15.7-19.1l-14.5-10.2l-9.4,16.8l-30-1.1l-15.1-7
							c0,0.9,0.2,2.3,1.1,4.2l0.6,1.3L420.7,148.2z"/>
					</g>
				</g>
			</g>
		</g>
		<g>
			<g>
				<g>
					<g>
						<path class="st1" d="M537.6,129.5l1.7,12.5L537.6,129.5z"/>
					</g>
				</g>
			</g>
			<g>
				<g>
					<g>
						<rect x="537.4" y="129.4" transform="matrix(0.9911 -0.1335 0.1335 0.9911 -13.2999 73.0928)" width="2" height="12.6"/>
					</g>
				</g>
			</g>
		</g>
	</g>
	<rect x="7.3" y="361.9" width="557.2" height="1.9"/>
</g>
</svg>
