<?xml version="1.0" encoding="utf-8"?>
<!-- Generator: Adobe Illustrator 25.1.0, SVG Export Plug-In . SVG Version: 6.00 Build 0)  -->
<svg version="1.1" id="Capa_1" xmlns="http://www.w3.org/2000/svg" xmlns:xlink="http://www.w3.org/1999/xlink" x="0px" y="0px"
	 viewBox="0 0 58.8 76.3" style="enable-background:new 0 0 58.8 76.3;" xml:space="preserve">
	<g>
		<g>
			<path d="M29.4,76.3l-1.1-1.1C27.1,73.9,0,45.2,0,29.4C0,13.2,13.2,0,29.4,0c16.2,0,29.4,13.2,29.4,29.4
				c0,15.8-27.1,44.5-28.3,45.7L29.4,76.3z M29.4,3C14.8,3,3,14.8,3,29.4c0,12.9,21.3,36.9,26.4,42.5c5.1-5.6,26.4-29.6,26.4-42.5
				C55.8,14.8,43.9,3,29.4,3z"/>
		</g>
		<g>
			<path d="M29.4,43.2c-0.6,0-1.1,0-1.7-0.1c-7.6-0.9-13.1-7.9-12.2-15.5c0.9-7.6,7.9-13.1,15.5-12.2c3.7,0.5,7,2.3,9.3,5.3
				c2.3,2.9,3.3,6.6,2.9,10.3c-0.5,3.7-2.3,7-5.3,9.3C35.5,42.2,32.5,43.2,29.4,43.2z M29.4,18.3c-5.5,0-10.2,4.1-10.9,9.6
				c-0.7,6,3.5,11.5,9.5,12.2c2.9,0.4,5.8-0.4,8.1-2.2c2.3-1.8,3.8-4.4,4.1-7.3c0.4-2.9-0.4-5.8-2.2-8.1c-1.8-2.3-4.4-3.8-7.3-4.1
				C30.3,18.4,29.8,18.3,29.4,18.3z"/>
		</g>
	</g>
</svg>
