<?xml version="1.0" encoding="utf-8"?>
<!-- Generator: Adobe Illustrator 25.1.0, SVG Export Plug-In . SVG Version: 6.00 Build 0)  -->
<svg version="1.1" id="Capa_1" xmlns="http://www.w3.org/2000/svg" xmlns:xlink="http://www.w3.org/1999/xlink" x="0px" y="0px"
	 viewBox="0 0 132.7 135.7" style="enable-background:new 0 0 132.7 135.7;" xml:space="preserve">
	<g>
		<path d="M67.8,8.9C34.6,8.9,7.6,36,7.6,69.2c0,33.2,27,60.2,60.2,60.2c33.2,0,60.2-27,60.2-60.2C128.1,36,101.1,8.9,67.8,8.9z
			M67.8,126C36.5,126,11,100.5,11,69.2c0-31.4,25.5-56.9,56.9-56.9s56.9,25.5,56.9,56.9C124.7,100.5,99.2,126,67.8,126z"/>
		<path d="M63.1,51.8c-0.2-0.1-0.4-0.2-0.6-0.1c-0.2,0.1-0.3,0.3-0.3,0.5v34c0,0.2,0.1,0.4,0.3,0.5c0.1,0,0.1,0.1,0.2,0.1
			c0.1,0,0.2,0,0.3-0.1l20.7-17c0.1-0.1,0.2-0.2,0.2-0.4c0-0.2-0.1-0.3-0.2-0.4L63.1,51.8z"/>
	</g>
</svg>
