<?xml version="1.0" encoding="utf-8"?>
<!-- Generator: Adobe Illustrator 25.1.0, SVG Export Plug-In . SVG Version: 6.00 Build 0)  -->
<svg version="1.1" id="Capa_1" xmlns="http://www.w3.org/2000/svg" xmlns:xlink="http://www.w3.org/1999/xlink" x="0px" y="0px"
	 viewBox="0 0 308.8 287.7" style="enable-background:new 0 0 308.8 287.7;" xml:space="preserve">
<style type="text/css">
	.st0{fill:#00CE7C;}
	.st1{fill:#100532;}
</style>
<g>
	<g>
		<g>
			<g>
				<rect x="181.1" y="19.4" class="st0" width="1.9" height="8.5"/>
			</g>
			<g>
				<rect x="188.2" y="32.2" class="st0" width="8.5" height="1.9"/>
			</g>
			<g>
				<rect x="181.1" y="39.7" class="st0" width="1.9" height="8.5"/>
			</g>
			<g>
				<rect x="167.7" y="32.2" class="st0" width="8.5" height="1.9"/>
			</g>
		</g>
		<g>
			<g>
				<polygon class="st0" points="66.2,232.2 31.7,215.3 32.5,213.6 66.2,230.1 100.1,213.9 100.9,215.6 				"/>
			</g>
			<g>
				<path class="st0" d="M67.2,252.8h-1.9v-2.5h1.9V252.8z M67.2,247.8h-1.9v-2.5h1.9V247.8z M67.2,242.9h-1.9v-2.2h1.9V242.9z"/>
			</g>
			<g>
				<rect x="65.3" y="252.8" class="st0" width="1.9" height="20"/>
			</g>
			<g>
				<polygon class="st0" points="66.2,273.8 29.9,257.2 30.4,234.2 32.3,234.3 31.8,256 66.2,271.8 99.6,256.4 99.6,235 101.4,235 
					101.4,257.6 				"/>
			</g>
			<g>
				<polygon class="st0" points="55.3,247.3 19.1,229.2 31.2,213.5 48.7,207.5 49.3,209.2 32.3,215.1 22,228.5 54.8,245 65.5,231 
					67,232.2 				"/>
			</g>
			<g>
				<polygon class="st0" points="77,247.8 65.4,232.6 66.9,231.5 77.6,245.4 110.4,229 99.9,215.5 82.8,209.5 83.4,207.8 101.1,214 
					113.2,229.6 				"/>
			</g>
			<g>
				<path class="st0" d="M66.2,219.4L52,205.1c-0.3-0.3-0.4-0.8-0.2-1.2c0.2-0.4,0.6-0.7,1-0.7h5.5v-14h1.9v15.8h-5.5l11.7,11.7
					l11.7-11.7h-5.5v-22.3h1.9v20.4h5.5c0.4,0,0.8,0.3,1,0.7c0.2,0.4,0.1,0.9-0.2,1.2L66.2,219.4z"/>
			</g>
			<g>
				<rect x="64.8" y="178.7" class="st0" width="1.9" height="13.6"/>
			</g>
			<g>
				
					<rect x="40.7" y="253.7" transform="matrix(0.4173 -0.9088 0.9088 0.4173 -219.4495 194.0522)" class="st0" width="1.9" height="28.8"/>
			</g>
		</g>
		<g>
			<g>
				<g>
					<polygon class="st0" points="86.9,68.2 31.4,42.1 32.2,40.4 86.9,66.2 141.3,41.1 142.1,42.8 					"/>
				</g>
				<g>
					<path class="st0" d="M86.9,134.8l-56-26.4V39.7l55.7-27.4l56,28.1v68.7L86.9,134.8z M32.7,107.2l54.2,25.5l53.9-24.8V41.5
						L86.6,14.3L32.7,40.8V107.2z"/>
				</g>
				<g>
					<path class="st0" d="M87.8,101.8H86v-2.5h1.9V101.8z M87.8,96.8H86v-2.5h1.9V96.8z M87.8,91.8H86v-2.5h1.9V91.8z M87.8,86.9H86
						v-2.5h1.9V86.9z M87.8,81.9H86v-2.5h1.9V81.9z M87.8,76.9H86v-2.5h1.9V76.9z M87.8,72H86v-2.5h1.9V72z"/>
				</g>
				<g>
					<rect x="86" y="101.8" class="st0" width="1.9" height="32"/>
				</g>
			</g>
			<g>
				<g>
					<path class="st0" d="M49.1,176l-0.5-1.8c0.3-0.1,29.9-7.7,59.8-9.6l0.1,1.9C78.9,168.4,49.4,175.9,49.1,176z"/>
				</g>
				<g>
					<path class="st0" d="M88.1,202.1c-9.5-16.3-13.7-34.5-11.9-51.3L78,151c-1.8,16.4,2.4,34.2,11.7,50.1L88.1,202.1z"/>
				</g>
				<g>
					<path class="st0" d="M189.4,98c-3.5-5.2-7.6-10.1-12.2-14.5c-0.1-0.1-9.2-8.6-16.1-12.3l0.9-1.6c7.1,3.8,16.1,12.3,16.5,12.6
						c4.7,4.5,8.9,9.4,12.4,14.8L189.4,98z"/>
				</g>
				<g>
					<path class="st0" d="M44.8,192.8c-9.1-14.1-13.9-30.5-13.9-47.3c0-6,0.6-12,1.8-17.8l1.8,0.4c-1.2,5.7-1.8,11.6-1.8,17.4
						c0,16.5,4.7,32.5,13.6,46.3L44.8,192.8z"/>
				</g>
				<g>
					<path class="st0" d="M14.2,134.1l-1.9-0.2c0.8-7.3,2.5-14.6,4.8-21.6l1.8,0.6C16.6,119.8,15,126.9,14.2,134.1z"/>
				</g>
				<g>
					<path class="st0" d="M28.4,203.4c-13.2-20.6-18.9-45.3-16.1-69.5l1.9,0.2c-2.7,23.8,2.9,48,15.8,68.3L28.4,203.4z"/>
				</g>
			</g>
			<g>
				
					<rect x="86" y="9.8" transform="matrix(0.4258 -0.9048 0.9048 0.4258 13.5185 101.7086)" class="st0" width="1.9" height="60.9"/>
			</g>
		</g>
		<g>
			<g>
				<g>
					<path class="st0" d="M211,113.1h-14.7l-3.3,9h-4.8l13.5-35h4.1l13.3,35h-4.8L211,113.1z M197.8,109.1h11.8l-5.8-15.9h-0.1
						L197.8,109.1z"/>
				</g>
			</g>
			<g>
				<path class="st0" d="M277.4,52.2l-0.7-0.7c-0.7-0.8-17.6-18.6-17.6-28.4c0-10.1,8.2-18.2,18.2-18.2c10.1,0,18.2,8.2,18.2,18.2
					c0,9.8-16.8,27.6-17.6,28.4L277.4,52.2z M277.4,6.7c-9,0-16.4,7.3-16.4,16.4c0,8,13.2,22.9,16.4,26.4
					c3.2-3.5,16.4-18.4,16.4-26.4C293.7,14,286.4,6.7,277.4,6.7z"/>
			</g>
			<g>
				<path class="st0" d="M277.4,31.7c-0.4,0-0.7,0-1.1-0.1c-4.7-0.6-8.1-4.9-7.5-9.7c0.6-4.7,4.9-8.1,9.7-7.5
					c2.3,0.3,4.3,1.4,5.8,3.3c1.4,1.8,2.1,4.1,1.8,6.4c-0.3,2.3-1.4,4.3-3.3,5.8C281.2,31,279.3,31.7,277.4,31.7z M277.4,16.2
					c-3.4,0-6.3,2.5-6.7,6c-0.5,3.7,2.2,7.1,5.9,7.6c1.8,0.2,3.6-0.3,5-1.4c1.4-1.1,2.3-2.7,2.6-4.5c0.2-1.8-0.3-3.6-1.4-5
					c-1.1-1.4-2.7-2.3-4.5-2.6C277.9,16.2,277.6,16.2,277.4,16.2z"/>
			</g>
			<g>
				<path class="st0" d="M230.8,111.1c-3.3,0-5.9-2.6-5.9-5.9c0-3.3,2.6-5.9,5.9-5.9c3.3,0,5.9,2.6,5.9,5.9
					C236.7,108.5,234,111.1,230.8,111.1z M230.8,101.2c-2.2,0-4,1.8-4,4c0,2.2,1.8,4,4,4c2.2,0,4-1.8,4-4
					C234.8,103,233,101.2,230.8,101.2z"/>
			</g>
			<g>
				<path class="st0" d="M253.2,107.3h-2.5v-1.9h2.5V107.3z M248.2,107.3h-2.5v-1.9h2.5V107.3z M243.3,107.3h-2.5v-1.9h2.5V107.3z
					 M255.7,107.3l0-1.9c0.8,0,1.6-0.1,2.3-0.2l0.3,1.8C257.4,107.3,256.6,107.3,255.7,107.3z M260.9,106.6l-0.5-1.8
					c0.7-0.2,1.5-0.5,2.2-0.8l0.8,1.7C262.5,106,261.7,106.3,260.9,106.6z M265.6,104.4l-1-1.6c0.7-0.4,1.3-0.9,1.9-1.4l1.2,1.4
					C267,103.4,266.3,103.9,265.6,104.4z M269.5,101l-1.4-1.2c0.5-0.6,1-1.2,1.4-1.9l1.6,1C270.7,99.7,270.1,100.4,269.5,101z
					 M272.4,96.7l-1.7-0.8c0.3-0.7,0.6-1.4,0.9-2.2l1.8,0.6C273.1,95.1,272.8,95.9,272.4,96.7z M274,91.7l-1.8-0.3
					c0.1-0.8,0.2-1.6,0.2-2.3l1.9,0.1C274.2,90,274.1,90.9,274,91.7z M272.3,86.7c-0.1-0.8-0.2-1.6-0.4-2.3l1.8-0.5
					c0.2,0.8,0.4,1.7,0.5,2.6L272.3,86.7z M271.1,82.2c-0.3-0.7-0.7-1.4-1-2.1l1.6-0.9c0.4,0.7,0.8,1.5,1.2,2.3L271.1,82.2z
					 M268.8,78.1c-0.5-0.6-1-1.2-1.6-1.7l1.3-1.3c0.6,0.6,1.2,1.2,1.8,1.9L268.8,78.1z M265.4,74.9c-0.6-0.5-1.3-0.9-2-1.2l0.9-1.6
					c0.8,0.4,1.5,0.9,2.2,1.4L265.4,74.9z M261.2,72.7c-0.7-0.3-1.5-0.5-2.3-0.6l0.4-1.8c0.9,0.2,1.7,0.4,2.5,0.7L261.2,72.7z
					 M256.6,71.8c-0.4,0-0.7,0-1.1,0h-1.3v-1.9h1.3c0.4,0,0.8,0,1.2,0L256.6,71.8z M251.7,71.7h-2.5v-1.9h2.5V71.7z M246.7,71.7
					h-2.5v-1.9h2.5V71.7z M241.8,71.7h-2.5v-1.9h2.5V71.7z M236.8,71.7h-2.5v-1.9h2.5V71.7z M231.8,71.7h-1.4c-0.4,0-0.8,0-1.2,0
					l0.1-1.9c0.3,0,0.7,0,1,0h1.4V71.7z M226.7,71.2c-0.9-0.2-1.7-0.5-2.5-0.9l0.8-1.7c0.7,0.3,1.4,0.6,2.2,0.8L226.7,71.2z
					 M221.9,69.1c-0.7-0.5-1.4-1.1-2-1.7l1.3-1.3c0.5,0.5,1.1,1,1.8,1.5L221.9,69.1z M218.2,65.4c-0.5-0.7-1-1.5-1.3-2.3l1.7-0.8
					c0.3,0.7,0.7,1.4,1.2,2L218.2,65.4z M215.9,60.6c-0.2-0.8-0.4-1.7-0.5-2.6l1.9-0.2c0.1,0.8,0.2,1.5,0.4,2.3L215.9,60.6z
					 M217.3,55.5l-1.9-0.1c0.1-0.9,0.2-1.8,0.4-2.6l1.8,0.5C217.4,54,217.3,54.8,217.3,55.5z M218.4,51.1l-1.7-0.8
					c0.4-0.8,0.8-1.6,1.3-2.3l1.5,1.1C219.1,49.7,218.7,50.4,218.4,51.1z M221,47.3l-1.3-1.3c0.6-0.6,1.3-1.2,2-1.7l1.1,1.5
					C222.2,46.2,221.6,46.7,221,47.3z M224.8,44.6l-0.8-1.7c0.8-0.4,1.6-0.7,2.5-0.9l0.5,1.8C226.2,44,225.5,44.3,224.8,44.6z
					 M229.3,43.4l-0.2-1.9c0.5,0,0.9-0.1,1.4-0.1h1.2v1.9h-1.2C230.1,43.3,229.7,43.3,229.3,43.4z M261.5,43.3H259v-1.9h2.5V43.3z
					 M256.5,43.3H254v-1.9h2.5V43.3z M251.5,43.3H249v-1.9h2.5V43.3z M246.6,43.3h-2.5v-1.9h2.5V43.3z M241.6,43.3h-2.5v-1.9h2.5
					V43.3z M236.6,43.3h-2.5v-1.9h2.5V43.3z"/>
			</g>
		</g>
	</g>
	<g>
		<g>
			<path class="st0" d="M124.5,130.7v143.4h174.1V130.7H124.5z M259.7,216.5c-8,0-14.7-5.9-15.8-13.6h-53.7v-44.8h81.1v31.4
				c2.7,2.9,4.4,6.7,4.4,11C275.8,209.3,268.6,216.5,259.7,216.5z"/>
		</g>
		<g>
			<g>
				<path class="st1" d="M293.3,268.3l-174.7-1.5V127l174.7,1.5V268.3z M120.5,264.9l171,1.5v-136l-171-1.5V264.9z"/>
			</g>
			<g>
				<g>
					<g>
						<polygon class="st1" points="164.2,227.1 152.1,214.8 139.9,226.9 138.5,225.5 152.2,212.1 165.6,225.8 						"/>
					</g>
				</g>
				<g>
					<rect x="151.2" y="213.5" class="st1" width="1.9" height="33.7"/>
				</g>
			</g>
			<g>
				<rect x="139.2" y="246.2" class="st1" width="59.2" height="1.9"/>
			</g>
			<g>
				<g>
					<g>
						<polygon class="st1" points="197.8,227.1 185.7,214.8 173.4,226.9 172.1,225.5 185.7,212.1 199.1,225.8 						"/>
					</g>
				</g>
				<g>
					<rect x="184.7" y="213.5" class="st1" width="1.9" height="33.7"/>
				</g>
			</g>
			<g>
				<polygon class="st1" points="232.1,190.3 184.6,190.3 184.6,150.1 266.5,150.1 266.5,174.5 264.6,174.5 264.6,152 186.4,152 
					186.4,188.5 232.1,188.5 				"/>
			</g>
			<g>
				<g>
					<path class="st1" d="M253.2,166.1h-2.5v-1.9h2.5V166.1z M248.2,166.1h-2.5v-1.9h2.5V166.1z M243.2,166.1h-2.5v-1.9h2.5V166.1z
						 M238.3,166.1h-2.5v-1.9h2.5V166.1z M233.3,166.1h-2.5v-1.9h2.5V166.1z M228.3,166.1h-2.5v-1.9h2.5V166.1z M223.4,166.1h-2.5
						v-1.9h2.5V166.1z"/>
				</g>
				<g>
					<rect x="196.8" y="174.4" class="st1" width="38.6" height="1.9"/>
				</g>
			</g>
			<g>
				<path class="st1" d="M254.3,207.7c-8.5,0-15.4-6.9-15.4-15.4c0-8.5,6.9-15.4,15.4-15.4s15.4,6.9,15.4,15.4
					C269.7,200.8,262.8,207.7,254.3,207.7z M254.3,178.7c-7.5,0-13.5,6.1-13.5,13.5c0,7.5,6.1,13.5,13.5,13.5s13.5-6.1,13.5-13.5
					C267.8,184.8,261.8,178.7,254.3,178.7z"/>
			</g>
			<g>
				<circle class="st0" cx="254.3" cy="192.3" r="7.1"/>
			</g>
			<g>
				<path class="st1" d="M289.8,282.2h-1.2v-1.9h1.2V282.2z M286.1,282.2h-2.5v-1.9h2.5V282.2z M281.2,282.2h-2.5v-1.9h2.5V282.2z
					 M276.2,282.2h-2.5v-1.9h2.5V282.2z M271.2,282.2h-2.5v-1.9h2.5V282.2z"/>
			</g>
			<g>
				<rect x="121.4" y="280.3" class="st1" width="147.3" height="1.9"/>
			</g>
		</g>
	</g>
</g>
</svg>
