<?xml version="1.0" encoding="utf-8"?>
<!-- Generator: Adobe Illustrator 25.1.0, SVG Export Plug-In . SVG Version: 6.00 Build 0)  -->
<svg version="1.1" id="Capa_1" xmlns="http://www.w3.org/2000/svg" xmlns:xlink="http://www.w3.org/1999/xlink" x="0px" y="0px"
	 viewBox="0 0 278.1 262.2" style="enable-background:new 0 0 278.1 262.2;" xml:space="preserve">
<style type="text/css">
	.st0{fill:#00CE7C;}
</style>
<g>
	<g>
		<g>
			<g>
				<rect x="149" y="43.5" class="st0" width="1.7" height="6.8"/>
			</g>
			<g>
				<rect x="154.8" y="53.6" class="st0" width="6.8" height="1.7"/>
			</g>
			<g>
				<rect x="149" y="59.7" class="st0" width="1.7" height="6.8"/>
			</g>
			<g>
				<rect x="138.4" y="53.6" class="st0" width="6.8" height="1.7"/>
			</g>
		</g>
		<g>
			<g>
				<rect x="251.9" y="167.4" class="st0" width="1.7" height="5.8"/>
			</g>
			<g>
				<rect x="256.9" y="175.9" class="st0" width="5.8" height="1.7"/>
			</g>
			<g>
				<rect x="251.9" y="181.3" class="st0" width="1.7" height="5.8"/>
			</g>
			<g>
				<rect x="243" y="175.9" class="st0" width="5.8" height="1.7"/>
			</g>
		</g>
		<g>
			<g>
				<polygon class="st0" points="58.5,120.2 35.7,120.2 35.7,77.2 139.6,77.2 139.6,103.9 137.9,103.9 137.9,78.9 37.4,78.9 
					37.4,118.5 58.5,118.5 				"/>
			</g>
			<g>
				<g>
					<rect x="48.3" y="83.8" class="st0" width="1.7" height="29.4"/>
				</g>
				<g>
					<g>
						<path class="st0" d="M62.8,112.9h-1.7v-2.2h1.7V112.9z M62.8,108.4h-1.7v-2.2h1.7V108.4z M62.8,103.9h-1.7v-2.2h1.7V103.9z
							 M62.8,99.5h-1.7v-2.2h1.7V99.5z M62.8,95h-1.7v-2.2h1.7V95z"/>
					</g>
					<g>
						<rect x="61.1" y="83.8" class="st0" width="1.7" height="8.9"/>
					</g>
				</g>
				<g>
					<rect x="74" y="83.8" class="st0" width="1.7" height="26"/>
				</g>
				<g>
					<g>
						<rect x="86.8" y="93.1" class="st0" width="1.7" height="8.4"/>
					</g>
					<g>
						<path class="st0" d="M88.5,93.1h-1.7v-0.3h1.7V93.1z M88.5,90.5h-1.7v-2.2h1.7V90.5z M88.5,86h-1.7v-2.2h1.7V86z"/>
					</g>
				</g>
				<g>
					<rect x="99.6" y="83.8" class="st0" width="1.7" height="9.9"/>
				</g>
				<g>
					<g>
						<rect x="112.5" y="83.8" class="st0" width="1.7" height="4.6"/>
					</g>
				</g>
				<g>
					<rect x="125.3" y="83.8" class="st0" width="1.7" height="12.8"/>
				</g>
			</g>
			<g>
				<polygon class="st0" points="106.7,54 97.7,54 97.7,52.3 105,52.3 105,46.9 87.6,43.4 70.3,46.9 70.3,52.3 79.5,52.3 79.5,54 
					68.6,54 68.6,45.5 87.6,41.7 106.7,45.5 				"/>
			</g>
			<g>
				<path class="st0" d="M97.7,54h-2.2v-1.7h2.2V54z M93.3,54H91v-1.7h2.2V54z M88.8,54h-2.2v-1.7h2.2V54z M84.3,54h-2.2v-1.7h2.2
					V54z M79.9,54h-0.3v-1.7h0.3V54z"/>
			</g>
			<g>
				<rect x="86.8" y="34.8" class="st0" width="1.7" height="7.7"/>
			</g>
			<g>
				<g>
					<path class="st0" d="M96.9,19.5H78.3L83,5h9.2L96.9,19.5z M80.6,17.8h14L91,6.7h-6.8L80.6,17.8z"/>
				</g>
				<g>
					<path class="st0" d="M87.4,36.8c-1.1,0-2.3-0.4-3.2-1.1c-1.1-0.9-1.8-2.2-1.8-3.5h1.7c0,0.9,0.4,1.6,1.1,2.2
						c0.8,0.6,1.9,0.9,2.9,0.7c1.7-0.4,3-2.1,3-3.8c0-2.3-1.5-4.3-3.7-5L86.8,26v-8.1h1.7v6.9c2.6,1,4.3,3.6,4.3,6.4
						c0,2.5-1.8,4.9-4.2,5.5C88.2,36.8,87.8,36.8,87.4,36.8z"/>
				</g>
			</g>
			<g>
				
					<rect x="38" y="64.6" transform="matrix(0.8003 -0.5996 0.5996 0.8003 -28.5495 45.0826)" class="st0" width="30.9" height="1.7"/>
			</g>
			<g>
				
					<rect x="120.8" y="50.4" transform="matrix(0.5995 -0.8004 0.8004 0.5995 -3.4919 123.4879)" class="st0" width="1.7" height="29.7"/>
			</g>
			<g>
				<rect x="29.6" y="112.3" class="st0" width="39.8" height="1.7"/>
			</g>
			<g>
				<rect x="36.5" y="83" class="st0" width="102.2" height="1.7"/>
			</g>
		</g>
		<g>
			<g>
				<g>
					<path class="st0" d="M209.1,250.7c-5.5,0-10.3-4.1-11.1-9.6c-0.9-6.1,3.4-11.8,9.5-12.7c6.1-0.9,11.8,3.4,12.7,9.5
						c0.9,6.1-3.4,11.8-9.5,12.7C210.2,250.7,209.6,250.7,209.1,250.7z M209.1,230c-0.4,0-0.9,0-1.3,0.1c-5.2,0.7-8.8,5.6-8.1,10.8
						c0.7,5.2,5.6,8.8,10.8,8.1c5.2-0.7,8.8-5.6,8.1-10.8C217.9,233.4,213.8,230,209.1,230z"/>
				</g>
				<g>
					<path class="st0" d="M209.1,244.6c-1.1,0-2.1-0.3-3-1c-1.1-0.8-1.8-2-2-3.3c-0.2-1.3,0.2-2.7,1-3.7c0.8-1.1,2-1.8,3.3-2
						c1.3-0.2,2.7,0.2,3.7,1c1.1,0.8,1.8,2,2,3.3c0.2,1.3-0.2,2.7-1,3.7c-0.8,1.1-2,1.8-3.3,2C209.6,244.5,209.3,244.6,209.1,244.6z
						 M209.1,236.2c-0.2,0-0.3,0-0.5,0c-0.9,0.1-1.7,0.6-2.2,1.3c-0.5,0.7-0.8,1.6-0.6,2.5c0.1,0.9,0.6,1.7,1.3,2.2
						c0.7,0.5,1.6,0.8,2.5,0.6c0.9-0.1,1.7-0.6,2.2-1.3c0.5-0.7,0.8-1.6,0.6-2.5c-0.1-0.9-0.6-1.7-1.3-2.2
						C210.5,236.4,209.8,236.2,209.1,236.2z"/>
				</g>
				<g>
					<polygon class="st0" points="206.2,225.3 197.7,164.8 194.4,163.7 195,162.1 199.2,163.6 207.9,225.1 					"/>
				</g>
				<g>
					
						<rect x="224.3" y="233.4" transform="matrix(0.9901 -0.1406 0.1406 0.9901 -30.4889 36.9747)" class="st0" width="44.2" height="1.7"/>
				</g>
				<g>
					<polygon class="st0" points="259.3,228.1 255.4,200.8 208.8,207.4 208.6,205.7 256.8,198.9 260.9,227.8 					"/>
				</g>
				<g>
					<polygon class="st0" points="239.3,198.5 235.7,173.1 204.6,177.5 204.3,175.8 237.1,171.2 241,198.3 					"/>
				</g>
				<g>
					
						<rect x="233.5" y="203" transform="matrix(0.9901 -0.1403 0.1403 0.9901 -28.1428 35.0323)" class="st0" width="1.7" height="28.1"/>
				</g>
				<g>
					
						<rect x="210.3" y="215.5" transform="matrix(0.9901 -0.1406 0.1406 0.9901 -28.0865 35.0882)" class="st0" width="47.9" height="1.7"/>
				</g>
				<g>
					<path class="st0" d="M223,198.8l-0.3-2.2l1.7-0.2l0.3,2.2L223,198.8z M222.4,194.4l-0.3-2.2l1.7-0.2l0.3,2.2L222.4,194.4z
						 M221.8,190l-0.3-2.2l1.7-0.2l0.3,2.2L221.8,190z M221.2,185.6l-0.3-2.2l1.7-0.2l0.3,2.2L221.2,185.6z M220.5,181.1l-0.3-2.2
						l1.7-0.2l0.3,2.2L220.5,181.1z M219.9,176.7l-0.3-2.2l1.7-0.2l0.3,2.2L219.9,176.7z"/>
				</g>
				<g>
					<polygon class="st0" points="223.2,244.6 222.9,243 268.2,236.6 266.7,226.2 268.4,225.9 270.1,238 					"/>
				</g>
			</g>
		</g>
		<g>
			<path class="st0" d="M239.7,165.2l-1.6-0.4c0.2-0.7,0.4-1.4,0.6-2.1l1.6,0.4C240.1,163.7,239.9,164.5,239.7,165.2z M240.8,160.8
				l-1.6-0.4c0.2-0.7,0.3-1.4,0.5-2.2l1.6,0.3C241.2,159.4,241,160.1,240.8,160.8z M241.8,156.4l-1.6-0.3c0.1-0.7,0.3-1.5,0.4-2.2
				l1.7,0.3C242,155,241.9,155.7,241.8,156.4z M242.5,152l-1.7-0.3c0.1-0.7,0.2-1.5,0.3-2.2l1.7,0.2
				C242.7,150.5,242.6,151.3,242.5,152z M243.1,147.5l-1.7-0.2c0.1-0.7,0.2-1.5,0.2-2.2l1.7,0.2C243.3,146,243.2,146.8,243.1,147.5z
				 M243.5,143.1l-1.7-0.1c0.1-0.7,0.1-1.5,0.1-2.2l1.7,0.1C243.6,141.6,243.6,142.3,243.5,143.1z M243.8,138.6l-1.7-0.1
				c0-0.7,0-1.5,0.1-2.2l1.7,0C243.8,137.1,243.8,137.8,243.8,138.6z M243.9,134.1h-1.7V134c0-0.7,0-1.4,0-2.2l1.7,0
				C243.9,132.6,243.9,133.3,243.9,134.1L243.9,134.1z M242.1,129.6c0-0.7-0.1-1.5-0.1-2.2l1.7-0.1c0,0.7,0.1,1.5,0.1,2.2
				L242.1,129.6z M241.9,125.2c-0.1-0.7-0.1-1.5-0.2-2.2l1.7-0.2c0.1,0.7,0.1,1.5,0.2,2.2L241.9,125.2z M241.4,120.8
				c-0.1-0.7-0.2-1.5-0.3-2.2l1.7-0.2c0.1,0.7,0.2,1.5,0.3,2.2L241.4,120.8z M240.9,116.4c-0.1-0.7-0.2-1.5-0.3-2.2l1.7-0.3
				c0.1,0.7,0.2,1.5,0.4,2.2L240.9,116.4z"/>
		</g>
		<g>
			<g>
				<polygon class="st0" points="209.2,82.6 174.8,65.8 175.5,64.3 209.2,80.7 242.9,64.6 243.7,66.1 				"/>
			</g>
			<g>
				<path class="st0" d="M210,103.2h-1.7V101h1.7V103.2z M210,98.7h-1.7v-2.2h1.7V98.7z M210,94.3h-1.7v-2.2h1.7V94.3z"/>
			</g>
			<g>
				<rect x="208.3" y="103.2" class="st0" width="1.7" height="19.9"/>
			</g>
			<g>
				<polygon class="st0" points="209.2,124.1 173.1,107.5 173.6,84.7 175.3,84.8 174.8,106.4 209.2,122.2 242.5,106.9 242.5,85.5 
					244.1,85.5 244.1,107.9 				"/>
			</g>
			<g>
				<polygon class="st0" points="198.3,97.6 162.4,79.6 174.3,64.2 191.7,58.1 192.3,59.7 175.3,65.6 165,79 197.8,95.5 208.5,81.6 
					209.8,82.6 				"/>
			</g>
			<g>
				<polygon class="st0" points="220,98.1 208.4,83.1 209.7,82 220.4,96 253.3,79.5 242.8,66 225.7,60 226.2,58.5 243.8,64.6 
					244,64.8 255.8,80.1 				"/>
			</g>
			<g>
				<path class="st0" d="M209.2,69.8L195,55.7c-0.3-0.3-0.4-0.7-0.2-1.1c0.2-0.4,0.5-0.6,0.9-0.6h5.6V40h1.7v15.7h-5.6l11.8,11.8
					L221,55.6h-5.6V33.5h1.7V54h5.6c0.4,0,0.8,0.2,0.9,0.6c0.2,0.4,0.1,0.8-0.2,1.1L209.2,69.8z"/>
			</g>
			<g>
				<rect x="207.8" y="29.4" class="st0" width="1.7" height="13.6"/>
			</g>
			<g>
				
					<rect x="183.8" y="104.1" transform="matrix(0.4173 -0.9088 0.9088 0.4173 -8.980784e-02 236.8288)" class="st0" width="1.7" height="28.7"/>
			</g>
		</g>
		<g>
			<path class="st0" d="M26,200.3c-0.4-0.6-0.7-1.1-1.1-1.7l1.4-0.9c0.4,0.6,0.7,1.1,1.1,1.6L26,200.3z M23.6,196.7
				c-0.4-0.6-0.8-1.3-1.2-1.9l1.4-0.9c0.4,0.6,0.8,1.3,1.2,1.9L23.6,196.7z M21.3,192.8c-0.4-0.7-0.7-1.3-1.1-2l1.5-0.8
				c0.4,0.6,0.7,1.3,1.1,1.9L21.3,192.8z M19.2,188.9c-0.3-0.7-0.7-1.3-1-2l1.5-0.7c0.3,0.7,0.7,1.3,1,2L19.2,188.9z M17.2,184.9
				c-0.3-0.7-0.6-1.4-0.9-2l1.5-0.7c0.3,0.7,0.6,1.3,0.9,2L17.2,184.9z M15.3,180.8c-0.3-0.7-0.6-1.4-0.9-2.1l1.6-0.6
				c0.3,0.7,0.6,1.4,0.9,2L15.3,180.8z M13.7,176.6c-0.3-0.7-0.5-1.4-0.8-2.1l1.6-0.6c0.3,0.7,0.5,1.4,0.8,2.1L13.7,176.6z
				 M12.1,172.4c-0.2-0.7-0.5-1.4-0.7-2.1l1.6-0.5c0.2,0.7,0.5,1.4,0.7,2.1L12.1,172.4z M10.8,168.1c-0.2-0.7-0.4-1.4-0.6-2.2
				l1.6-0.4c0.2,0.7,0.4,1.4,0.6,2.1L10.8,168.1z M9.6,163.7c-0.2-0.7-0.4-1.5-0.5-2.2l1.6-0.4c0.2,0.7,0.3,1.4,0.5,2.2L9.6,163.7z
				 M8.5,159.4c-0.2-0.7-0.3-1.5-0.5-2.2l1.6-0.3c0.1,0.7,0.3,1.5,0.4,2.2L8.5,159.4z M7.6,154.9c-0.1-0.7-0.3-1.5-0.4-2.2l1.7-0.3
				c0.1,0.7,0.2,1.5,0.4,2.2L7.6,154.9z M6.9,150.5c-0.1-0.7-0.2-1.5-0.3-2.2l1.7-0.2c0.1,0.7,0.2,1.5,0.3,2.2L6.9,150.5z M6.4,146
				c-0.1-0.7-0.1-1.5-0.2-2.2l1.7-0.1c0.1,0.7,0.1,1.5,0.2,2.2L6.4,146z M6,141.5c0-0.7-0.1-1.5-0.1-2.2l1.7-0.1
				c0,0.7,0.1,1.5,0.1,2.2L6,141.5z M5.8,137c0-0.7,0-1.5,0-2.3l1.7,0c0,0.7,0,1.5,0,2.2L5.8,137z M7.5,132.5l-1.7,0
				c0-0.8,0-1.5,0-2.2l1.7,0.1C7.5,131.1,7.5,131.8,7.5,132.5z M7.6,128.1L6,128c0-0.7,0.1-1.5,0.1-2.2l1.7,0.1
				C7.7,126.6,7.7,127.4,7.6,128.1z M7.9,123.7l-1.7-0.1c0.1-0.7,0.1-1.5,0.2-2.2l1.7,0.2C8.1,122.2,8,123,7.9,123.7z M8.4,119.3
				l-1.7-0.2c0.1-0.7,0.2-1.5,0.3-2.2l1.7,0.2C8.6,117.8,8.5,118.6,8.4,119.3z M9,114.9l-1.7-0.3c0.1-0.7,0.2-1.5,0.4-2.2l1.6,0.3
				C9.3,113.4,9.2,114.2,9,114.9z M9.8,110.5l-1.6-0.3c0.1-0.7,0.3-1.5,0.5-2.2l1.6,0.4C10.1,109.1,10,109.8,9.8,110.5z M10.8,106.2
				l-1.6-0.4c0.2-0.7,0.4-1.5,0.6-2.2l1.6,0.4C11.2,104.8,11,105.5,10.8,106.2z M11.9,101.9l-1.6-0.5c0.2-0.7,0.4-1.4,0.6-2.1
				l1.6,0.5C12.3,100.5,12.1,101.2,11.9,101.9z M13.2,97.7l-1.6-0.5c0.2-0.7,0.5-1.4,0.7-2.1l1.6,0.5C13.7,96.3,13.4,97,13.2,97.7z
				 M14.7,93.5L13.1,93c0.3-0.7,0.5-1.4,0.8-2.1l1.6,0.6C15.2,92.1,14.9,92.8,14.7,93.5z M16.3,89.4l-1.5-0.6
				c0.3-0.7,0.6-1.4,0.9-2.1l1.5,0.7C16.8,88,16.5,88.7,16.3,89.4z M18,85.4l-1.5-0.7c0.3-0.7,0.6-1.4,1-2l1.5,0.7
				C18.6,84,18.3,84.7,18,85.4z M19.9,81.4l-1.5-0.8c0.3-0.7,0.7-1.3,1-2l1.5,0.8C20.6,80.1,20.3,80.7,19.9,81.4z M22,77.5l-1.5-0.8
				c0.4-0.7,0.7-1.3,1.1-2l1.5,0.8C22.7,76.2,22.3,76.8,22,77.5z M24.2,73.6l-1.4-0.9c0.4-0.6,0.8-1.3,1.2-1.9l1.4,0.9
				C25,72.4,24.6,73,24.2,73.6z M26.6,69.9L25.2,69c0.4-0.6,0.8-1.2,1.2-1.9l1.4,0.9C27.4,68.6,27,69.2,26.6,69.9z M29,66.2l-1.4-1
				c0.4-0.6,0.9-1.2,1.3-1.8l1.3,1C29.9,65,29.5,65.6,29,66.2z M31.7,62.6l-1.3-1c0.5-0.6,0.9-1.2,1.4-1.8l1.3,1
				C32.6,61.5,32.1,62.1,31.7,62.6z M34.4,59.2l-1.3-1.1c0.5-0.6,1-1.1,1.4-1.7l1.3,1.1C35.4,58,34.9,58.6,34.4,59.2z M37.3,55.8
				l-1.2-1.1c0.5-0.6,1-1.1,1.5-1.7l1.2,1.1C38.3,54.7,37.8,55.3,37.3,55.8z M40.3,52.6l-1.2-1.2c0.5-0.5,1-1.1,1.6-1.6l1.2,1.2
				C41.4,51.5,40.9,52,40.3,52.6z M43.5,49.4l-1.2-1.2c0.5-0.5,1.1-1,1.6-1.5l1.1,1.2C44.5,48.4,44,48.9,43.5,49.4z M46.7,46.4
				l-1.1-1.2c0.6-0.5,1.1-1,1.7-1.5l1.1,1.3C47.8,45.5,47.3,45.9,46.7,46.4z M50.1,43.5L49,42.2c0.6-0.5,1.2-1,1.7-1.4l1,1.3
				C51.2,42.6,50.7,43.1,50.1,43.5z M53.6,40.8l-1-1.3c0.6-0.5,1.2-0.9,1.8-1.4l1,1.3C54.7,39.9,54.1,40.3,53.6,40.8z M57.1,38.1
				l-1-1.4c0.6-0.4,1.2-0.9,1.8-1.3l0.9,1.4C58.3,37.3,57.7,37.7,57.1,38.1z M60.8,35.7l-0.9-1.4c0.6-0.4,1.3-0.8,1.9-1.2l0.9,1.4
				C62,34.9,61.4,35.3,60.8,35.7z M64.6,33.3l-0.9-1.4c0.6-0.4,1.3-0.8,1.9-1.1l0.8,1.5C65.8,32.5,65.2,32.9,64.6,33.3z M68.4,31.1
				l-0.8-1.5c0.7-0.4,1.3-0.7,2-1.1l0.8,1.5C69.7,30.4,69.1,30.7,68.4,31.1z M72.3,29l-0.7-1.5c0.7-0.3,1.3-0.7,2-1l0.7,1.5
				C73.7,28.4,73,28.7,72.3,29z M76.4,27.1l-0.7-1.5c0.7-0.3,1.4-0.6,2.1-0.9l0.7,1.5C77.7,26.5,77,26.8,76.4,27.1z M80.4,25.4
				l-0.6-1.6c0.7-0.3,1.4-0.6,2.1-0.8l0.6,1.6C81.8,24.8,81.1,25.1,80.4,25.4z"/>
		</g>
		<g>
			<path class="st0" d="M103.7,18.5l-0.3-1.6c0.7-0.1,1.5-0.3,2.2-0.4l0.3,1.7C105.2,18.3,104.4,18.4,103.7,18.5z M108.1,17.8
				l-0.2-1.7c0.7-0.1,1.5-0.2,2.2-0.3l0.2,1.7C109.5,17.6,108.8,17.7,108.1,17.8z M112.5,17.3l-0.2-1.7c0.7-0.1,1.5-0.1,2.2-0.2
				l0.1,1.7C113.9,17.1,113.2,17.2,112.5,17.3z M116.9,16.9l-0.1-1.7c0.7,0,1.5-0.1,2.2-0.1l0.1,1.7
				C118.3,16.8,117.6,16.9,116.9,16.9z"/>
		</g>
		<g>
			<path class="st0" d="M146.9,18.7c-0.7-0.1-1.5-0.3-2.2-0.4l0.3-1.7c0.7,0.1,1.5,0.3,2.2,0.4L146.9,18.7z M142.5,18
				c-0.7-0.1-1.5-0.2-2.2-0.3l0.2-1.7c0.7,0.1,1.5,0.2,2.2,0.3L142.5,18z M138.1,17.4c-0.6-0.1-1.3-0.1-1.9-0.2l0.2-1.7
				c0.6,0.1,1.3,0.1,1.9,0.2L138.1,17.4z"/>
		</g>
		<g>
			<path class="st0" d="M197.7,42.1c-0.6-0.5-1.2-0.9-1.7-1.4l1-1.3c0.6,0.5,1.2,0.9,1.8,1.4L197.7,42.1z M194.2,39.4
				c-0.6-0.4-1.2-0.9-1.8-1.3l0.9-1.4c0.6,0.4,1.2,0.9,1.8,1.3L194.2,39.4z M190.6,36.9c-0.6-0.4-1.2-0.8-1.9-1.2l0.9-1.4
				c0.6,0.4,1.3,0.8,1.9,1.2L190.6,36.9z M186.8,34.5c-0.6-0.4-1.3-0.8-1.9-1.1l0.8-1.4c0.6,0.4,1.3,0.8,1.9,1.2L186.8,34.5z
				 M183,32.3c-0.6-0.4-1.3-0.7-1.9-1.1l0.8-1.5c0.7,0.4,1.3,0.7,2,1.1L183,32.3z M179.1,30.1c-0.7-0.3-1.3-0.7-2-1l0.7-1.5
				c0.7,0.3,1.3,0.7,2,1L179.1,30.1z M175.1,28.2c-0.7-0.3-1.3-0.6-2-0.9l0.7-1.5c0.7,0.3,1.4,0.6,2,0.9L175.1,28.2z M171.1,26.4
				l-0.5-0.2l0.6-1.5l0.5,0.2L171.1,26.4z"/>
		</g>
		<g>
			<path class="st0" d="M159.3,34.4c-7.2,0-13.1-5.9-13.1-13.1c0-7.2,5.9-13.1,13.1-13.1c7.2,0,13.1,5.9,13.1,13.1
				C172.4,28.5,166.5,34.4,159.3,34.4z M159.3,9.8c-6.3,0-11.4,5.1-11.4,11.4c0,6.3,5.1,11.4,11.4,11.4c6.3,0,11.4-5.1,11.4-11.4
				C170.7,15,165.6,9.8,159.3,9.8z"/>
		</g>
		<g>
			<path class="st0" d="M127.5,22.1c-4.4,0-8-3.6-8-8s3.6-8,8-8c4.4,0,8,3.6,8,8S131.9,22.1,127.5,22.1z M127.5,7.9
				c-3.5,0-6.3,2.8-6.3,6.3s2.8,6.3,6.3,6.3c3.5,0,6.3-2.8,6.3-6.3S131,7.9,127.5,7.9z"/>
		</g>
	</g>
	<g>
		<rect x="102.4" y="207.1" class="st0" width="21.4" height="23.4"/>
	</g>
	<g>
		<polygon class="st0" points="36.5,254.8 36.5,158.7 119,106.3 195.6,154.1 195.6,255.3 162.5,255.3 162.5,166.4 71.3,166.4 
			71.3,254.8 		"/>
	</g>
	<g>
		<g>
			<polygon points="16.8,151.3 15.9,149.9 112.6,91.1 173.7,128.3 172.8,129.8 112.6,93.1 			"/>
		</g>
		<g>
			<g>
				<rect x="195.9" y="141.4" transform="matrix(0.5165 -0.8563 0.8563 0.5165 -27.5121 237.7135)" width="1.7" height="3.6"/>
			</g>
			<g>
				<path d="M188.5,139.2l-2-1.2l0.9-1.4l2,1.2L188.5,139.2z M184.5,136.8l-2-1.2l0.9-1.4l2,1.2L184.5,136.8z M180.6,134.5l-1.6-0.9
					l0.9-1.4l1.6,0.9L180.6,134.5z"/>
			</g>
			<g>
				<rect x="173.9" y="128.2" transform="matrix(0.5163 -0.8564 0.8564 0.5163 -26.7765 212.5447)" width="1.7" height="3.6"/>
			</g>
		</g>
		<g>
			<rect x="203.3" y="140.9" transform="matrix(0.5273 -0.8497 0.8497 0.5273 -29.0713 243.3078)" width="1.7" height="13.8"/>
		</g>
		<g>
			<g>
				<path d="M192.4,252h-35.5v-87.6H68.2V252H32.7v-97.2l0.4-0.2l79.5-49.2l79.9,49.5V252z M158.6,250.3h32.1v-94.6l-78.2-48.4
					l-78.2,48.4v94.6h32.1v-87.6h92.1V250.3z"/>
			</g>
			<g>
				<rect x="76.3" y="172.8" width="72.6" height="1.7"/>
			</g>
			<g>
				<rect x="67.3" y="184.1" width="90.4" height="1.7"/>
			</g>
		</g>
		<g>
			<g>
				<path d="M116.5,252H79.8v-24.9h36.7V252z M81.4,250.3h33.4v-21.6H81.4V250.3z"/>
			</g>
			<g>
				<path d="M145.4,252h-30.6v-24.9h30.6V252z M116.5,250.3h27.2v-21.6h-27.2V250.3z"/>
			</g>
			<g>
				<path d="M122.2,228.7H99.4v-24.5h22.8V228.7z M101.1,227.1h19.4v-21.1h-19.4V227.1z"/>
			</g>
		</g>
		<g>
			<rect x="16.4" y="250.3" width="181.3" height="1.7"/>
		</g>
	</g>
</g>
</svg>
