<?xml version="1.0" encoding="utf-8"?>
<!-- Generator: Adobe Illustrator 25.1.0, SVG Export Plug-In . SVG Version: 6.00 Build 0)  -->
<svg version="1.1" id="Capa_1" xmlns="http://www.w3.org/2000/svg" xmlns:xlink="http://www.w3.org/1999/xlink" x="0px" y="0px"
	 viewBox="0 0 308.8 287.7" style="enable-background:new 0 0 308.8 287.7;" xml:space="preserve">
<style type="text/css">
	.st0{fill:#00CE7C;}
	.st1{fill:#100532;}
</style>
<g>
	<g>
		<g>
			<g>
				<rect x="144.7" y="3.3" class="st0" width="1.9" height="8.5"/>
			</g>
			<g>
				<rect x="151.8" y="16" class="st0" width="8.5" height="1.9"/>
			</g>
			<g>
				<rect x="144.7" y="23.6" class="st0" width="1.9" height="8.5"/>
			</g>
			<g>
				<rect x="131.4" y="16" class="st0" width="8.5" height="1.9"/>
			</g>
		</g>
		<g>
			<g>
				<rect x="274.9" y="148.3" class="st0" width="1.9" height="5.6"/>
			</g>
			<g>
				<rect x="279.9" y="156.4" class="st0" width="5.6" height="1.9"/>
			</g>
			<g>
				<rect x="274.9" y="161.6" class="st0" width="1.9" height="5.6"/>
			</g>
			<g>
				<rect x="266.5" y="156.4" class="st0" width="5.6" height="1.9"/>
			</g>
		</g>
		<g>
			<g>
				<g>
					<rect x="18.5" y="259.9" class="st0" width="16.3" height="1.9"/>
				</g>
				<g>
					<rect x="61.3" y="259.9" class="st0" width="56.5" height="1.9"/>
				</g>
				<g>
					<path class="st0" d="M48,273.5c-7.2,0-13.1-5.9-13.1-13.1c0-7.2,5.9-13.1,13.1-13.1s13.1,5.9,13.1,13.1
						C61.1,267.7,55.2,273.5,48,273.5z M48,249.3c-6.1,0-11.2,5-11.2,11.2c0,6.1,5,11.2,11.2,11.2s11.2-5,11.2-11.2
						C59.2,254.3,54.2,249.3,48,249.3z"/>
				</g>
				<g>
					<path class="st0" d="M129.9,273.5c-7.2,0-13.1-5.9-13.1-13.1c0-7.2,5.9-13.1,13.1-13.1c7.2,0,13.1,5.9,13.1,13.1
						C143,267.7,137.1,273.5,129.9,273.5z M129.9,249.3c-6.1,0-11.2,5-11.2,11.2c0,6.1,5,11.2,11.2,11.2c6.1,0,11.2-5,11.2-11.2
						C141,254.3,136,249.3,129.9,249.3z"/>
				</g>
				<g>
					<circle class="st0" cx="48" cy="260.2" r="4.7"/>
				</g>
				<g>
					<circle class="st0" cx="129.9" cy="260.2" r="4.7"/>
				</g>
				<g>
					<rect x="51.6" y="229.8" class="st0" width="9.1" height="1.9"/>
				</g>
				<g>
					<rect x="11.2" y="274.1" class="st0" width="157" height="1.9"/>
				</g>
				<g>
					<path class="st0" d="M154.5,261.4H142v-1.9h12.5c2.2,0,4-1.8,4-4c0-2.2-1.8-4-4-4h-9.1v-1.9h9.1c3.3,0,5.9,2.7,5.9,5.9
						C160.5,258.8,157.8,261.4,154.5,261.4z"/>
				</g>
				<g>
					<rect x="14.1" y="249.2" class="st0" width="19.8" height="1.9"/>
				</g>
				<g>
					<path class="st0" d="M21.7,244.5h-7.5v-1.9h7.5c2,0,3.6-1.9,3.6-4.2c0-2.3-1.6-4.2-3.6-4.2h-2.3v-1.9h2.3c3,0,5.5,2.7,5.5,6.1
						C27.2,241.8,24.7,244.5,21.7,244.5z"/>
				</g>
				<g>
					<path class="st0" d="M21.9,261.8H17c-4.2,0-7.6-3.4-7.6-7.6v-2.4c0-1.4,1.1-2.5,2.5-2.5l1.5,0v-7.9L27,212.4
						c0.3-0.9,4.4-12.3,6.4-15.5c3.1-5.1,9.3-7.4,14.2-7.4H67v59.7h46.9v1.9H65.1v-59.7H47.5c-4.3,0-9.8,2-12.5,6.5
						c-1.9,3.2-6.2,15.1-6.2,15.2l0,0.1l-13.4,28.6v9.4l-3.4,0c-0.3,0-0.6,0.3-0.6,0.6v2.4c0,3.1,2.5,5.7,5.7,5.7h4.9V261.8z"/>
				</g>
				<g>
					<path class="st0" d="M51.6,221.5H35l-0.2-5.8l0.1-0.2l7.2-15.8h17v14.3C59.1,218.2,55.7,221.5,51.6,221.5z M36.8,219.6h14.8
						c3.1,0,5.6-2.5,5.6-5.6v-12.4H43.3l-6.6,14.5L36.8,219.6z"/>
				</g>
				<g>
					<rect x="65.1" y="178.6" class="st0" width="1.9" height="11.9"/>
				</g>
				<g>
					<path class="st0" d="M77,244h-1.9v-69.5c0-3.8,3.1-6.9,6.9-6.9l12.4,0.7l-0.1,1.9l-12.3-0.7c-2.7,0-4.9,2.2-4.9,5V244z"/>
				</g>
			</g>
		</g>
		<g>
			<g>
				<rect x="45.4" y="140.2" class="st0" width="50.2" height="1.9"/>
			</g>
			<g>
				<polygon class="st0" points="124.9,107.2 123,107.2 123,42.5 32.3,42.5 32.3,76.7 30.4,76.7 30.4,40.6 124.9,40.6 				"/>
			</g>
			<g>
				<rect x="51.8" y="148" class="st0" width="33.8" height="1.9"/>
			</g>
			<g>
				<g>
					
						<rect x="19.7" y="150.1" transform="matrix(0.6174 -0.7866 0.7866 0.6174 -111.1743 74.1278)" class="st0" width="1.9" height="2.6"/>
				</g>
				<g>
					<polygon class="st0" points="12.7,132.9 11.2,131.7 13,129.5 11.2,102.1 18.8,98.6 19.6,100.3 13.2,103.3 15,130.1 					"/>
				</g>
				<g>
					<path class="st0" d="M28.6,143.6l-1.5-1.2l2.6-3.2l0.3-0.1c0.1,0,9.7-2.4,13.1-6.7c3.3-4.3,4.6-12,4.6-12.1l0-0.2l7-13.7
						c0.3-0.7,0.4-1.4,0.2-2.1c-0.2-0.7-0.7-1.3-1.4-1.6c-1.3-0.6-2.9-0.2-3.6,1.1l-9.6,14.4c-0.2,0.3-5.3,6.9-11,8.7l-0.6-1.8
						c5.1-1.7,10-8,10-8l9.6-14.3c1.2-2,3.9-2.8,6-1.7c1.1,0.6,2,1.5,2.4,2.7c0.4,1.2,0.3,2.5-0.3,3.6l-6.9,13.4
						c-0.2,1.2-1.6,8.5-5,12.8c-3.5,4.5-12.1,6.9-13.9,7.3L28.6,143.6z"/>
				</g>
				<g>
					<path class="st0" d="M30.1,120.5l-12-21.7c-0.8-1.5-1-3.3-0.6-5c0.5-1.7,1.6-3.1,3.1-3.9l45-25.1c3.2-1.7,7.2-0.6,8.9,2.6
						l13.3,24.2c0.8,1.5,1,3.3,0.5,5c-0.5,1.7-1.6,3.1-3.1,3.9l-35.5,19.9l-0.9-1.7l35.5-19.9c1.1-0.6,1.9-1.6,2.2-2.8
						c0.3-1.2,0.2-2.4-0.4-3.5L73,68.2c-1.2-2.2-4.1-3.1-6.3-1.8l-45,25.1c-1.1,0.6-1.9,1.6-2.2,2.8c-0.3,1.2-0.2,2.4,0.4,3.5
						l12,21.7L30.1,120.5z"/>
				</g>
				<g>
					<path class="st0" d="M53.5,85.9l-0.9-1.7l2.2-1.3l0.9,1.7L53.5,85.9z M57.9,83.4L57,81.7l2.2-1.3l0.9,1.7L57.9,83.4z
						 M62.4,80.9l-0.9-1.7l2.2-1.3l0.9,1.7L62.4,80.9z M66.8,78.4l-0.9-1.7l2.2-1.3l0.9,1.7L66.8,78.4z M71.3,75.9l-0.9-1.7l2.2-1.3
						l0.9,1.7L71.3,75.9z M75.7,73.4l-0.9-1.7l0.4-0.2l0.9,1.7L75.7,73.4z"/>
				</g>
				<g>
					
						<rect x="20.1" y="92.7" transform="matrix(0.8719 -0.4897 0.4897 0.8719 -41.0319 30.4643)" class="st0" width="35.2" height="1.9"/>
				</g>
				<g>
					
						<rect x="23" y="95" transform="matrix(0.8715 -0.4903 0.4903 0.8715 -40.1335 38.7204)" class="st0" width="61.7" height="1.9"/>
				</g>
				<g>
					<polygon class="st0" points="20.8,161.9 15.1,158 16.1,156.4 20.4,159.3 29,149.1 5.7,132 6.8,130.5 31.8,148.8 					"/>
				</g>
			</g>
			<g>
				<path class="st0" d="M114.8,53.7h-0.7v-1.9h0.7V53.7z M111.6,53.7h-2.5v-1.9h2.5V53.7z M106.5,53.7H104v-1.9h2.5V53.7z
					 M101.4,53.7h-2.5v-1.9h2.5V53.7z M96.3,53.7h-2.5v-1.9h2.5V53.7z M91.2,53.7h-2.5v-1.9h2.5V53.7z M86.1,53.7h-2.5v-1.9h2.5
					V53.7z"/>
			</g>
			<g>
				<rect x="94.3" y="59.2" class="st0" width="19.2" height="1.9"/>
			</g>
		</g>
		<g>
			<g>
				<g>
					<path class="st0" d="M202.4,96.6v-3.2l13.6-13c3-2.8,5.1-5.1,6.3-6.9c1.2-1.8,1.9-3.8,1.9-6.1c0-4.8-3.7-8-9.2-8
						c-4.2,0-8.2,1.8-11.7,5.4V60c3.4-3.1,7.4-4.6,12.1-4.6c3.8,0,6.8,1,9.3,3.2c2.5,2.1,3.8,4.9,3.8,8.3c0,2.7-0.7,5.2-2,7.4
						c-1.3,2.1-3.6,4.8-6.9,7.9l-10.9,10.5H230v3.9H202.4z"/>
				</g>
				<g>
					<path class="st0" d="M252.9,96.6V85.4h-21.7V82l21.8-25.9h4.1v25.4h6.7v3.9H257v11.2H252.9z M236.1,81.5h16.8V61.8L236.1,81.5z
						"/>
				</g>
			</g>
			<g>
				<g>
					<polygon class="st0" points="195.7,53 193.7,53 193.7,29.4 170.2,29.4 170.2,27.5 195.7,27.5 					"/>
				</g>
				<g>
					<polygon class="st0" points="294.3,127.8 268.8,127.8 268.8,102.2 270.7,102.2 270.7,125.8 294.3,125.8 					"/>
				</g>
				<g>
					<path class="st0" d="M183.3,56.2l-1.8-0.7c2.8-7,6.9-13.3,12.3-18.7l1.4,1.4C190,43.3,186,49.4,183.3,56.2z"/>
				</g>
				<g>
					<path class="st0" d="M233.1,131.4l-0.2,0l0-1.9l0.2,0c0.8,0,1.6,0,2.3-0.1l0.1,1.9C234.7,131.4,233.9,131.4,233.1,131.4z
						 M230.3,131.4c-0.9,0-1.7-0.1-2.6-0.2l0.2-1.9c0.8,0.1,1.7,0.1,2.5,0.2L230.3,131.4z M238.1,131.2l-0.2-1.9
						c0.8-0.1,1.7-0.2,2.5-0.3l0.3,1.9C239.8,131,238.9,131.1,238.1,131.2z M225.1,130.9c-0.6-0.1-1.2-0.2-1.8-0.3l0.3-1.9
						c0.6,0.1,1.1,0.2,1.7,0.3L225.1,130.9z M243.2,130.5l-0.3-1.9c0.8-0.2,1.6-0.3,2.4-0.5l0.4,1.9
						C244.9,130.2,244,130.3,243.2,130.5z M248.2,129.3l-0.5-1.8c0.8-0.2,1.6-0.5,2.4-0.7l0.6,1.8
						C249.9,128.8,249.1,129.1,248.2,129.3z M253.2,127.7l-0.7-1.8c0.8-0.3,1.5-0.6,2.3-1l0.8,1.7C254.8,127,254,127.4,253.2,127.7z
						"/>
				</g>
				<g>
					<path class="st0" d="M270.4,117l-1.3-1.4c11.1-10.1,17.5-24.6,17.5-39.6c0-19.3-10.5-37.2-27.3-46.7l0.9-1.7
						c17.4,9.8,28.3,28.3,28.3,48.3C288.5,91.6,281.9,106.5,270.4,117z"/>
				</g>
				<g>
					<path class="st0" d="M259.3,29.3L259.3,29.3l0.8-1.7l0.1,0.1L259.3,29.3z M257,28.1c-0.7-0.4-1.5-0.7-2.3-1.1l0.8-1.7
						c0.8,0.4,1.6,0.7,2.3,1.1L257,28.1z"/>
				</g>
				<g>
					<path class="st0" d="M209.6,27.9l-0.8-1.7c0.8-0.4,1.6-0.7,2.4-1.1l0.8,1.8C211.1,27.2,210.3,27.5,209.6,27.9z M254.7,27
						c-0.5-0.2-1-0.4-1.4-0.6l0.7-1.8c0.5,0.2,1,0.4,1.5,0.6L254.7,27z M214.2,25.9l-0.7-1.8c0.8-0.3,1.6-0.6,2.4-0.9l0.6,1.8
						C215.7,25.3,214.9,25.6,214.2,25.9z M250.9,25.5c-0.8-0.3-1.6-0.5-2.4-0.8l0.6-1.8c0.8,0.2,1.7,0.5,2.5,0.8L250.9,25.5z
						 M218.9,24.4l-0.5-1.8c0.8-0.2,1.7-0.4,2.5-0.6l0.4,1.9C220.5,23.9,219.7,24.1,218.9,24.4z M246.2,24.1
						c-0.8-0.2-1.6-0.4-2.4-0.6l0.4-1.9c0.8,0.2,1.7,0.4,2.5,0.6L246.2,24.1z M223.8,23.3l-0.3-1.9c0.8-0.1,1.7-0.3,2.6-0.4l0.2,1.9
						C225.5,23,224.6,23.1,223.8,23.3z M241.2,23.1c-0.8-0.1-1.7-0.2-2.5-0.3l0.2-1.9c0.9,0.1,1.7,0.2,2.6,0.3L241.2,23.1z
						 M228.8,22.6l-0.2-1.9c0.9-0.1,1.7-0.1,2.6-0.1l0.1,1.9C230.4,22.5,229.6,22.6,228.8,22.6z M236.3,22.6c-0.8,0-1.7-0.1-2.5-0.1
						l0-1.9c0.9,0,1.7,0,2.6,0.1L236.3,22.6z"/>
				</g>
				<g>
					<path class="st0" d="M279.6,127.5l-1.3-1.4c14.1-12.8,22.3-31,22.3-50.1c0-37.2-30.3-67.5-67.5-67.5c-10.3,0-20.1,2.3-29.3,6.7
						l-0.8-1.7c9.4-4.6,19.6-6.9,30.2-6.9c38.3,0,69.4,31.1,69.4,69.4C302.5,95.6,294.1,114.4,279.6,127.5z"/>
				</g>
				<g>
					<path class="st0" d="M171,49.3l-1.8-0.8c3.3-7.7,8-14.7,13.8-20.7l1.4,1.3C178.8,35,174.3,41.8,171,49.3z"/>
				</g>
				<g>
					<path class="st0" d="M233.1,145.4v-1.9c10.4,0,20.3-2.3,29.6-6.8l0.8,1.7C254,143.1,243.7,145.4,233.1,145.4z"/>
				</g>
			</g>
		</g>
		<g>
			
				<rect x="6.6" y="163.7" transform="matrix(0.6257 -0.78 0.78 0.6257 -123.2792 72.3778)" class="st0" width="14.5" height="1.9"/>
		</g>
		<g>
			<path class="st0" d="M41.4,175.9c-4.2,0-7.6-3.4-7.6-7.6c0-4.2,3.4-7.6,7.6-7.6s7.6,3.4,7.6,7.6C49,172.5,45.6,175.9,41.4,175.9z
				 M41.4,162.6c-3.1,0-5.7,2.6-5.7,5.7c0,3.1,2.6,5.7,5.7,5.7c3.1,0,5.7-2.6,5.7-5.7C47.1,165.2,44.5,162.6,41.4,162.6z"/>
		</g>
	</g>
	<g>
		<g>
			<polygon class="st0" points="200.6,189.3 216.8,181.4 267.3,205.3 267.3,237.5 265.9,241.1 262.5,239.9 260.2,242.7 251.6,239.9 
				251.6,214 			"/>
		</g>
		<g>
			
				<ellipse transform="matrix(0.9736 -0.2282 0.2282 0.9736 -35.8708 41.9532)" class="st0" cx="163.4" cy="176.1" rx="9.8" ry="9.8"/>
		</g>
		<g>
			<path class="st0" d="M170.4,220.9c-3.4,0.8-6.9,1.3-10.5,1.3c-24.3,0-43.9-19.7-43.9-43.9c0-24.3,19.7-43.9,43.9-43.9
				s43.9,19.7,43.9,43.9c0,0.4,0,0.8,0,1.3l15-8.2c-3.4-29.5-28.5-52.4-58.9-52.4c-32.8,0-59.3,26.6-59.3,59.3
				c0,32.8,26.6,59.3,59.3,59.3c3.6,0,7.1-0.3,10.5-0.9V220.9z"/>
		</g>
		<g>
			<g>
				<g>
					<path class="st1" d="M159.6,179.8c-4.5,0-8.1-3.6-8.1-8.1c0-4.5,3.6-8.1,8.1-8.1c4.5,0,8.1,3.6,8.1,8.1
						C167.7,176.2,164.1,179.8,159.6,179.8C159.6,179.8,159.6,179.8,159.6,179.8z M153.4,171.8c0,3.4,2.8,6.2,6.2,6.2
						c3.4,0,6.2-2.8,6.2-6.2c0-3.4-2.8-6.2-6.2-6.2C156.2,165.6,153.4,168.3,153.4,171.8L153.4,171.8z"/>
				</g>
			</g>
			<g>
				<path class="st1" d="M215.4,133.1c-4.1-7.5-10.6-13.5-18.5-16.8l0.7-1.8c8.3,3.5,15.2,9.7,19.4,17.7L215.4,133.1z"/>
			</g>
			<g>
				<path class="st1" d="M104.3,135l-1.7-0.8c3.9-8.4,10.7-15.1,19.1-19.1l0.8,1.7C114.5,120.5,108.1,127,104.3,135z"/>
			</g>
			<g>
				<path class="st1" d="M160.3,230.9c-32.9,0-59.7-26.8-59.7-59.7s26.8-59.7,59.7-59.7c15.1,0,29.6,5.7,40.6,15.9
					c11,10.2,17.7,24.1,18.9,39c0.1,1.6,0.2,3.2,0.2,4.8h-1.9c0-1.5-0.1-3.1-0.2-4.6c-2.4-29.8-27.7-53.2-57.7-53.2
					c-31.9,0-57.8,25.9-57.8,57.8c0,31.9,25.9,57.8,57.8,57.8c6.2,0,12.3-1,18.1-2.9l0.6,1.8C173.1,229.9,166.8,230.9,160.3,230.9z"
					/>
			</g>
			<g>
				<rect x="152.6" y="96" class="st1" width="1.9" height="16.9"/>
			</g>
			<g>
				<rect x="165.6" y="96" class="st1" width="1.9" height="16.9"/>
			</g>
			<g>
				<path class="st1" d="M176.3,92.5h-33V75h33V92.5z M145.2,90.6h29.2V76.9h-29.2V90.6z"/>
			</g>
			<g>
				<path class="st1" d="M172.5,106.7l-0.8-1.8c9.6-4.2,15.9-13.3,15.9-23.2h1.9C189.5,92.4,182.8,102.2,172.5,106.7z"/>
			</g>
			<g>
				<path class="st1" d="M133.1,81.7h-1.9c0-0.9,0-1.8,0.1-2.6l1.9,0.2C133.2,80.1,133.1,80.9,133.1,81.7z M187.5,79.9
					c-0.1-0.8-0.2-1.6-0.3-2.4l1.9-0.3c0.2,0.9,0.3,1.7,0.3,2.6L187.5,79.9z M133.6,76.9l-1.9-0.4c0.2-0.9,0.4-1.7,0.7-2.6l1.8,0.6
					C134,75.3,133.8,76.1,133.6,76.9z M186.7,75.1c-0.2-0.8-0.5-1.6-0.8-2.3l1.8-0.7c0.3,0.8,0.6,1.7,0.9,2.5L186.7,75.1z
					 M135.1,72.2l-1.8-0.8c0.3-0.8,0.7-1.6,1.2-2.4l1.7,0.9C135.8,70.7,135.4,71.5,135.1,72.2z M184.8,70.6
					c-0.4-0.7-0.8-1.4-1.2-2.1l1.6-1c0.5,0.7,0.9,1.5,1.3,2.3L184.8,70.6z M137.4,67.9l-1.6-1.1c0.5-0.7,1-1.4,1.6-2.1l1.5,1.2
					C138.4,66.6,137.9,67.2,137.4,67.9z M182.2,66.5c-0.5-0.6-1.1-1.3-1.6-1.8l1.4-1.3c0.6,0.6,1.2,1.3,1.7,2L182.2,66.5z
					 M140.6,64.2l-1.3-1.4c0.6-0.6,1.3-1.2,2-1.8l1.2,1.5C141.8,63,141.2,63.6,140.6,64.2z M178.8,62.9c-0.6-0.5-1.3-1-1.9-1.5
					l1.1-1.6c0.7,0.5,1.4,1.1,2.1,1.6L178.8,62.9z M144.4,61l-1.1-1.6c0.7-0.5,1.5-1,2.2-1.4l0.9,1.7
					C145.8,60.2,145.1,60.6,144.4,61z M174.8,60.1c-0.7-0.4-1.4-0.8-2.2-1.1l0.8-1.7c0.8,0.4,1.6,0.8,2.3,1.2L174.8,60.1z
					 M148.7,58.7l-0.8-1.7c0.8-0.4,1.6-0.7,2.4-1l0.6,1.8C150.2,58,149.4,58.3,148.7,58.7z M170.3,58c-0.8-0.3-1.6-0.5-2.3-0.8
					l0.5-1.8c0.8,0.2,1.7,0.5,2.5,0.8L170.3,58z M153.3,57.1l-0.5-1.9c0.8-0.2,1.7-0.4,2.6-0.5l0.3,1.9
					C155,56.7,154.1,56.9,153.3,57.1z M165.6,56.7c-0.8-0.1-1.6-0.3-2.4-0.3l0.2-1.9c0.9,0.1,1.7,0.2,2.6,0.4L165.6,56.7z
					 M158.2,56.3l-0.1-1.9c0.7-0.1,1.5-0.1,2.3-0.1l0.4,0l0,1.9l-0.3,0C159.6,56.2,158.9,56.2,158.2,56.3z"/>
			</g>
			<g>
				<path class="st1" d="M146.7,106c-9.6-4.8-15.5-14.1-15.5-24.2h1.9c0,9.4,5.5,18.1,14.4,22.5L146.7,106z"/>
			</g>
			<g>
				<path class="st1" d="M159.8,218.9c-26,0-47.1-21.1-47.1-47.1c0-26,21.1-47.1,47.1-47.1c26,0,47.1,21.1,47.1,47.1
					c0,2.3-0.2,4.6-0.5,6.8l-1.9-0.3c0.3-2.2,0.5-4.4,0.5-6.5c0-24.9-20.3-45.2-45.2-45.2c-24.9,0-45.2,20.3-45.2,45.2
					s20.3,45.2,45.2,45.2c7.1,0,13.8-1.6,20.1-4.7l0.8,1.7C174.2,217.2,167.1,218.9,159.8,218.9z"/>
			</g>
			<g>
				<rect x="157.7" y="125.6" class="st1" width="1.9" height="10.1"/>
			</g>
			<g>
				
					<rect x="131.1" y="137.5" transform="matrix(0.7071 -0.7071 0.7071 0.7071 -62.1083 135.1441)" class="st1" width="1.9" height="10.1"/>
			</g>
			<g>
				<rect x="115" y="170.5" class="st1" width="10.1" height="1.9"/>
			</g>
			<g>
				
					<rect x="125.3" y="197.1" transform="matrix(0.7071 -0.7071 0.7071 0.7071 -101.889 150.1458)" class="st1" width="10.1" height="1.9"/>
			</g>
			<g>
				<rect x="160" y="206.7" class="st1" width="1.9" height="10.1"/>
			</g>
			<g>
				<rect x="194.5" y="168.3" class="st1" width="10.1" height="1.9"/>
			</g>
			<g>
				
					<rect x="180.9" y="140" transform="matrix(0.7071 -0.7071 0.7071 0.7071 -45.2185 172.7429)" class="st1" width="10.1" height="1.9"/>
			</g>
			<g>
				
					<rect x="154.2" y="152.9" transform="matrix(0.3161 -0.9487 0.9487 0.3161 -32.8585 262.2229)" class="st1" width="22.6" height="1.9"/>
			</g>
			<g>
				<polygon class="st1" points="107.7,127.4 99.2,118.8 107.3,110.8 116.4,119.8 115,121.2 107.3,113.5 101.9,118.8 109.1,126 				
					"/>
			</g>
			<g>
				<polygon class="st1" points="213.8,124.6 212.4,123.2 218.7,116.9 214,112.2 206.2,119.9 204.9,118.6 214,109.5 221.4,116.9 
									"/>
			</g>
		</g>
		<g>
			<g>
				<polygon class="st1" points="235.5,220.7 183,196 183.8,194.3 235.5,218.6 261.2,206.8 262,208.5 				"/>
			</g>
			<g>
				
					<rect x="268.5" y="199" transform="matrix(0.9082 -0.4186 0.4186 0.9082 -58.1203 134.8698)" class="st1" width="19.8" height="1.9"/>
			</g>
			<g>
				<path class="st1" d="M235.5,283.7l-53.1-25v-65.1l52.8-26l53.1,26.6v65.1L235.5,283.7z M184.3,257.5l51.2,24.1l50.9-23.4v-62.7
					l-51.2-25.7l-50.8,25V257.5z"/>
			</g>
			<g>
				<path class="st1" d="M236.5,246.9h-1.9v-2.5h1.9V246.9z M236.5,241.8h-1.9v-2.5h1.9V241.8z M236.5,236.7h-1.9v-2.5h1.9V236.7z
					 M236.5,231.6h-1.9V229h1.9V231.6z M236.5,226.5h-1.9v-2.5h1.9V226.5z M236.5,221.4h-1.9v-1.7h1.9V221.4z"/>
			</g>
			<g>
				<rect x="234.5" y="246.9" class="st1" width="1.9" height="35.7"/>
			</g>
			<g>
				
					<rect x="226.3" y="168.7" transform="matrix(0.4219 -0.9066 0.9066 0.4219 -48.4204 320.6931)" class="st1" width="1.9" height="59.3"/>
			</g>
			<g>
				
					<rect x="242.7" y="161.1" transform="matrix(0.4219 -0.9066 0.9066 0.4219 -32.0671 331.1881)" class="st1" width="1.9" height="59.3"/>
			</g>
			<g>
				<polygon class="st1" points="258.4,237.3 253.2,236.2 253.2,212 255.1,212 255.1,234.7 257.4,235.2 259.2,231.8 263,232.6 
					264.8,229.2 268.6,230 270,227.5 270,204 271.9,204 271.9,228 269.6,232.2 265.8,231.4 264,234.8 260.2,234 				"/>
			</g>
			<g>
				<path class="st1" d="M207.8,261.2l-17.4-8.2v-11.8l17.4,8.2V261.2z M192.3,251.8l13.6,6.4v-7.6l-13.6-6.4V251.8z"/>
			</g>
		</g>
	</g>
</g>
</svg>
